<svg id="Layer_1" data-name="Layer 1" xmlns="http://www.w3.org/2000/svg" viewBox="0 0 500 500"><defs><style>.cls-1{fill:#009688;}.cls-2{fill:#64ffda;}</style></defs><title>electrify_air</title><rect class="cls-1" x="92.85" y="93.33" width="313.55" height="313.55" transform="translate(-103.37 249.66) rotate(-45)"/><path d="M249.63,56.68,443.06,250.11,249.63,443.54,56.2,250.11,249.63,56.68m0-56.57-250,250,250,250,250-250-250-250Z" transform="translate(0.37 -0.11)"/><circle class="cls-2" cx="249.63" cy="250.11" r="94" transform="translate(-50.41 63.93) rotate(-13.28)"/><path d="M249.63,171.11a79,79,0,1,1-79,79,79.09,79.09,0,0,1,79-79m0-30a109,109,0,1,0,109,109,109,109,0,0,0-109-109Z" transform="translate(0.37 -0.11)"/><polygon class="cls-1" points="250 334.33 165.65 388.97 210.69 388.97 210.69 433.44 250 464.56 289.31 430.78 289.31 388.97 334.35 388.97 250 334.33"/><polygon points="250 344.11 199.22 377 226.33 377 226.33 430.78 250 451.67 273.67 430.78 273.67 377 300.78 377 250 344.11"/><polygon class="cls-1" points="334.33 250 388.97 334.35 388.97 289.31 433.44 289.31 464.56 250 430.78 210.69 388.97 210.69 388.97 165.65 334.33 250"/><polygon points="344.11 250 377 300.78 377 273.67 430.78 273.67 451.67 250 430.78 226.33 377 226.33 377 199.22 344.11 250"/><polygon class="cls-1" points="250 165.67 334.35 111.03 289.31 111.03 289.31 66.56 250 35.44 210.69 69.22 210.69 111.03 165.65 111.03 250 165.67"/><polygon points="250 155.89 300.78 123 273.67 123 273.67 69.22 250 48.33 226.33 69.22 226.33 123 199.22 123 250 155.89"/><polygon class="cls-1" points="165.67 250 111.03 165.65 111.03 210.69 66.56 210.69 35.44 250 69.22 289.31 111.03 289.31 111.03 334.35 165.67 250"/><polygon points="155.89 250 123 199.22 123 226.33 69.22 226.33 48.33 250 69.22 273.67 123 273.67 123 300.78 155.89 250"/><path d="M297.89,198.52s-17.78-23.41-60.45-15.71c-29.45,5.32-51.85,40-53.33,59.26s3.85,46.52,32,64,63.11,2.37,71.11-3.55,31.11-29.93,25.19-56.89-23.67-34-29.93-36.15-23.56-5.41-33.85,1.36c-9.09,6-12.89,22.62-12.89,22.62s-6.59-5.31-3.93-20.13c2.4-13.3,10.77-19.2,20.45-22.22C274.52,184.15,297.89,198.52,297.89,198.52Z" transform="translate(0.37 -0.11)"/><path class="cls-2" d="M246.18,231.26a14.58,14.58,0,0,1,11.18-11.11c9.78-2.37,30.77.46,36.89,16.29,5.48,14.19,4.45,29.78-6.07,42.82a48.59,48.59,0,0,1-38.37,18.37c-13.48,0-27.11-7.41-34.37-16s-15.56-28-15.56-28,1.19,9,2.82,13.48S209.81,284,209.81,284s-4.3-2.37-9.93-12.15-7.55-28.44-1.63-41.33S210,209,218.7,202.52a48.87,48.87,0,0,1,16.89-8.3A44.29,44.29,0,0,0,222.4,209c-4.89,9.33-7.55,24.63-3.26,36.88A80.07,80.07,0,0,0,230,266.37s-9.49-3-13.63-11.85c-8.58-18.38-4-33.48-4-33.48s-6.82,14.22-4.74,26.51,9.92,26.37,19.11,31.26,25.18,7.26,35.11,3.26,14.37-9,16.15-13.33,2.22-15.56,2.22-15.56-1.63,8.89-5.34,12.74-10.66,8-17.63,7.56a19.85,19.85,0,0,1-16.88-11.11c-3.71-7.11-3-14.67,2.48-20.3s7-6.37,10.55-7.26,9.93.45,9.93.45a10.62,10.62,0,0,0-7.7-4.3A55.18,55.18,0,0,0,246.18,231.26Z" transform="translate(0.37 -0.11)"/><path d="M249.63,56.68,443.06,250.11,249.63,443.54,56.2,250.11,249.63,56.68m0-56.57-250,250,250,250,250-250-250-250Z" transform="translate(0.37 -0.11)"/></svg>