<svg id="Layer_1" data-name="Layer 1" xmlns="http://www.w3.org/2000/svg" viewBox="0 0 500 500"><defs><style>.cls-1{fill:#ef6c00;}.cls-2,.cls-3,.cls-5{fill:#ffa000;}.cls-3,.cls-4,.cls-5{stroke:#000;stroke-miterlimit:10;}.cls-3{stroke-width:20px;}.cls-4{fill:#f7931e;}.cls-4,.cls-5{stroke-width:15px;}</style></defs><title>electrify_coal</title><polygon class="cls-1" points="57.89 128.11 32.52 176.7 20.56 261.44 39.22 345.59 68.56 366.01 450.15 364.85 483.37 252.56 475.07 166.04 450.15 128.11 57.89 128.11"/><polygon class="cls-2" points="450.15 364.85 376.67 453.14 267.7 483.37 134.29 448.4 52.52 364.34 450.15 364.85"/><polygon class="cls-2" points="57.89 130.48 131.37 42.19 240.33 11.96 373.74 46.93 455.52 130.99 57.89 130.48"/><path d="M249.63,40.11A210,210,0,0,1,398.12,398.6a210,210,0,0,1-297-297,208.62,208.62,0,0,1,148.5-61.51m0-40C111.56.11-.37,112-.37,250.11s111.93,250,250,250,250-111.93,250-250S387.7.11,249.63.11Z" transform="translate(0.37 -0.11)"/><polygon points="102.15 61 388.37 61 435.78 97.15 64.22 97.15 102.15 61"/><polygon points="49.69 119.25 455.2 120.09 468.48 142.74 33.52 142.74 49.69 119.25"/><polygon points="398.85 436 112.63 436 65.22 399.85 436.78 399.85 398.85 436"/><polygon points="451.31 377.75 45.8 376.91 32.52 354.26 467.48 354.26 451.31 377.75"/><path class="cls-2" d="M182.81,344.37a28.62,28.62,0,1,1,28.62-28.62A28.65,28.65,0,0,1,182.81,344.37Z" transform="translate(0.37 -0.11)"/><path d="M182.81,297.13a18.62,18.62,0,1,1-18.62,18.62,18.64,18.64,0,0,1,18.62-18.62m0-20a38.62,38.62,0,1,0,38.62,38.62,38.62,38.62,0,0,0-38.62-38.62Z" transform="translate(0.37 -0.11)"/><circle class="cls-2" cx="318.82" cy="315.64" r="28.62"/><path d="M318.44,297.13a18.62,18.62,0,1,1-18.62,18.62,18.64,18.64,0,0,1,18.62-18.62m0-20a38.62,38.62,0,1,0,38.62,38.62,38.62,38.62,0,0,0-38.62-38.62Z" transform="translate(0.37 -0.11)"/><polygon class="cls-3" points="249 237.85 113.37 237.85 122.71 266.04 138.11 312.52 249 311.44 359.89 312.52 384.63 237.85 249 237.85"/><line class="cls-4" x1="377.96" y1="264.03" x2="124.71" y2="266.04"/><polygon class="cls-5" points="120.37 232.81 144.66 189.26 171.77 232.81 120.37 232.81"/><polygon class="cls-5" points="157.04 204.56 173.04 229.59 231.7 229.59 178.72 168.56 157.04 204.56"/><polygon class="cls-5" points="374.3 232.81 350 189.26 322.89 232.81 374.3 232.81"/><polygon class="cls-5" points="337.63 204.56 321.63 229.59 262.96 229.59 315.94 168.56 337.63 204.56"/><polygon class="cls-5" points="284.58 160.14 247.33 160.07 210.09 160.14 196.29 180.92 236.96 227.78 247.33 227.78 257.7 227.78 298.38 180.92 284.58 160.14"/></svg>