<svg id="Layer_1" data-name="Layer 1" xmlns="http://www.w3.org/2000/svg" viewBox="0 0 500.41 500"><defs><style>.cls-1{fill:#bf360c;}.cls-2,.cls-3{fill:#ff3d00;}.cls-3{stroke:#000;stroke-miterlimit:10;stroke-width:15px;}</style></defs><title>electrify_geothermal</title><circle class="cls-1" cx="250" cy="250" r="250"/><polygon points="44.61 175.67 468.07 175.67 481.41 234.33 32.16 234.33 44.61 175.67"/><polygon points="32.16 260.56 468.07 260.56 462.74 298.33 32.16 298.33 32.16 260.56"/><polygon points="38.83 336.85 474.74 336.85 469.41 366.11 38.83 366.11 38.83 336.85"/><polygon points="77.56 402.04 422.44 402.04 418.23 425.37 77.56 425.37 77.56 402.04"/><path class="cls-2" d="M298.34,464.44c-14.26,0-35.19-.21-57.23-.4-14.13-.13-28.51-.25-41.82-.35,16.63-13.23,25.45-26.1,27.28-39.47,3-22.06-13.79-39.12-28.62-54.18-21.43-21.75-29-32.17-17.19-47.8l12.07-16-48.57-.08,108.9-92.89L366.1,306.52l-56.71-.09-2.62,1.88c-15.49,11.1-23.57,22.2-24.7,33.94-1.59,16.5,10.54,29.34,22.27,41.77,11.13,11.77,22.63,24,21.88,38.18C325.58,434.36,316.2,448.56,298.34,464.44Z" transform="translate(0.58 -0.11)"/><path d="M253.26,226.33l85,70.15-25.6,0h-6.45l-5.24,3.75c-18,12.88-27.4,26.32-28.82,41.11-2,21,12.31,36.2,24.95,49.59,10.13,10.72,19.69,20.85,19.16,30.8-.32,6.22-4.51,16.78-21.74,32.75-14-.05-33.18-.22-53.3-.39l-17.64-.16c7.36-9.21,11.59-18.57,12.92-28.3,3.69-26.93-15.76-46.68-31.39-62.55-7.7-7.82-15.67-15.91-18.71-22.58-1.26-2.77-2.57-5.64,2.38-12.19l24.13-32-40.07-.06h-1.47l81.92-69.88m-.21-26.11L117.17,316.13h-5l60.65.1c-43.93,58.22,123.79,82.67-6.38,157.33,37.22,0,105.64.89,135.68.89,102.64-88-66.09-103.11,10.51-158l81.38.12L253.05,200.22ZM111.5,316.12h0Zm.11,0h0Zm0,0h0Zm0,0Zm0,0h0Zm.14,0h0Zm0,0h0Zm.07,0Zm0,0h0Zm0,0h0Zm0,0Zm0,0h0Zm0,0h0Zm0,0h0Zm0,0h0Zm0,0h0Zm0,0h0Zm0,0h0Zm281.85.44h0Z" transform="translate(0.58 -0.11)"/><polygon class="cls-3" points="162.63 182.78 162.63 138.33 221.15 116.11 221.15 182.78 162.63 182.78"/><polygon class="cls-3" points="221.15 182.78 221.15 138.33 279.67 116.11 279.67 182.78 221.15 182.78"/><polygon class="cls-3" points="279.67 182.78 279.67 138.33 338.19 116.11 338.19 182.78 279.67 182.78"/><path d="M249.83,40.11A210,210,0,0,1,398.32,398.6a210,210,0,1,1-297-297A208.59,208.59,0,0,1,249.83,40.11m0-40C111.76.11-.17,112-.17,250.11s111.93,250,250,250,250-111.93,250-250S387.9.11,249.83.11Z" transform="translate(0.58 -0.11)"/></svg>