<svg id="Layer_1" data-name="Layer 1" xmlns="http://www.w3.org/2000/svg" viewBox="0 0 500 500"><defs><style>.cls-1{fill:#bf360c;}.cls-2{fill:#ff3d00;}</style></defs><title>electrify_heat</title><path class="cls-1" d="M220.18,113.55l-23.55,8s27.55,28,19.55,52-66.66,81.12-66.66,81.12-27.56,41.55-16.45,66,80,70.66,80,70.66L278,388.22s-70.67-36.89-84.44-56.44-4.3-68,14.29-84.89,55.19-48,52.37-71.11S220.18,113.55,220.18,113.55Z" transform="translate(0.37 -0.11)"/><polygon class="cls-1" points="123.01 176.11 117 210.01 137.89 201.89 161.44 178.78 166.33 151.67 159.15 140.56 123.01 176.11"/><polygon class="cls-1" points="113.39 180.53 102.78 243.22 112.07 316.8 32.56 250.51 113.39 180.53"/><path class="cls-1" d="M279.07,386.67l23.56-8.05s-27.56-27.95-19.56-51.95,66.67-81.12,66.67-81.12,27.55-41.55,16.44-66-80-70.66-80-70.66L221.29,112s70.67,36.89,84.45,56.44,4.29,68-14.3,84.89-55.19,48-52.37,71.11S279.07,386.67,279.07,386.67Z" transform="translate(0.37 -0.11)"/><polygon class="cls-1" points="376.99 323.89 383 289.99 362.11 298.11 338.56 321.22 333.67 348.33 340.85 359.44 376.99 323.89"/><polygon class="cls-1" points="386.61 319.47 397.22 256.78 387.93 183.2 467.44 249.49 386.61 319.47"/><path class="cls-2" d="M231.31,118.75s35.85,32.4,30.64,54.63-26.22,52-26.22,52S194.5,260.93,191.39,284s8,57.78,23.56,67.56,50.52,25.2,50.52,25.2S229,348,235.73,315.15,266.5,268,277.17,256.49s32.89-39.11,31.11-63.78-28.89-54.45-40.89-59.78S231.31,118.75,231.31,118.75Z" transform="translate(0.37 -0.11)"/><path class="cls-2" d="M169.07,133.55l17.33-12s28.45,26.62,24.45,40.4-24.45,50.22-40,63.55-44.45,58.67-45.33,71.12-19.21-37.78-19.21-37.78l24.12-45.78s33.31-20.89,38.64-43.56S169.07,133.55,169.07,133.55Z" transform="translate(0.37 -0.11)"/><path class="cls-2" d="M330.18,366.67l-17.33,11.95S284.4,352,288.4,338.22s24.45-50.22,40-63.55,44.45-58.67,45.34-71.12,19.2,37.78,19.2,37.78l-24.12,45.78s-33.3,20.89-38.64,43.56S330.18,366.67,330.18,366.67Z" transform="translate(0.37 -0.11)"/><polygon class="cls-2" points="173 113.44 252.11 105 330.33 111.89 251.67 30.78 173 113.44"/><polygon class="cls-2" points="327 386.56 247.89 395 169.67 388.11 248.33 469.22 327 386.56"/><path d="M249.63,56.68,443.06,250.11,249.63,443.54,56.2,250.11,249.63,56.68m0-56.57-250,250,250,250,250-250-250-250Z" transform="translate(0.37 -0.11)"/><path d="M208.63,113.55S254.85,136.67,254,174s-20.89,44.89-30.22,53.33-46.22,34-41.77,87.3,109.47,73.59,109.47,73.59-85.33-26.07-89.28-77.79c-3.45-45.19,23.93-63.64,34.91-71.54,12.7-9.14,33.78-30.67,33.33-56.45C269.29,118,208.63,113.55,208.63,113.55Z" transform="translate(0.37 -0.11)"/><path d="M183.74,130.44s17.78,17.76,17.78,37.78c0,21.56-29.12,48-36.23,55.11s-46,42.83-42.42,71.72C127,328.81,181.6,374,181.6,374S146,341.51,143.29,295.78c-1.77-30.23,42.34-60.64,54.67-71.34,13.84-12,42.35-39.3,26.15-75.11-10.74-23.77-22.59-32.22-22.59-32.22Z" transform="translate(0.37 -0.11)"/><path d="M176.63,130.44a60.16,60.16,0,0,1,5,43.11c-4.85,18.47-25.2,35.12-33.2,42.23s-26.88,31.11-29.55,45.33c-3.12,16.65,0,43.56,0,43.56s-13.78-52.89-12.45-76,16.24-30.89,16.24-30.89,17.1,6,26.88-10,2.22-39.11,2.22-39.11Z" transform="translate(0.37 -0.11)"/><path d="M290.63,386.67s-46.23-23.12-45.34-60.45,20.89-44.89,30.23-53.33,46.21-34,41.77-87.3S207.81,112,207.81,112s85.33,26.07,89.28,77.79c3.45,45.19-23.93,63.64-34.91,71.54-12.69,9.14-33.78,30.67-33.33,56.45C230,382.21,290.63,386.67,290.63,386.67Z" transform="translate(0.37 -0.11)"/><path d="M315.52,369.78S297.74,352,297.74,332c0-21.56,29.11-48,36.22-55.11s46-42.83,42.42-71.72c-4.15-33.76-58.72-78.95-58.72-78.95s35.61,32.49,38.3,78.22c1.78,30.23-42.33,60.64-54.67,71.34-13.84,12-42.34,39.3-26.15,75.11,10.75,23.77,22.6,32.22,22.6,32.22Z" transform="translate(0.37 -0.11)"/><path d="M322.63,369.78a60.1,60.1,0,0,1-5-43.11c4.84-18.47,25.19-35.12,33.19-42.23s26.89-31.11,29.55-45.33c3.13-16.65,0-43.56,0-43.56s13.78,52.89,12.45,76-16.24,30.89-16.24,30.89-17.09-6-26.87,10-2.22,39.11-2.22,39.11Z" transform="translate(0.37 -0.11)"/><path d="M249.63,116.89a133.22,133.22,0,1,1-94.21,39,132.36,132.36,0,0,1,94.21-39m0-20A153.22,153.22,0,1,0,402.85,250.11,153.22,153.22,0,0,0,249.63,96.89Z" transform="translate(0.37 -0.11)"/></svg>