<svg id="Layer_1" data-name="Layer 1" xmlns="http://www.w3.org/2000/svg" viewBox="0 0 500 500"><defs><style>.cls-1{fill:#b3b3b3;}.cls-2{fill:#fff;}</style></defs><title>electrify_hydrogen</title><rect class="cls-1" x="92.85" y="93.33" width="313.55" height="313.55" transform="translate(-103.37 249.66) rotate(-45)"/><path d="M249.63,56.68,443.06,250.11,249.63,443.54,56.2,250.11,249.63,56.68m0-56.57-250,250,250,250,250-250-250-250Z" transform="translate(0.37 -0.11)"/><path class="cls-2" d="M249,101.26s-19.52-.59-25.15,13.63-74.37,99-74.37,97.18-39.12,7.49-41.48,33.19,42.66,39.41,42.66,39.41l68.74,86.81s18.3,21.33,29.6,21.33,28.78-21.92,28.78-21.92l74.37-89.78s33.91-4.8,36.48-33.37S348,209.11,348,209.11l-70.22-83.56Z" transform="translate(0.37 -0.11)"/><path d="M387.81,218.89c-12.74-11-29.33-7.41-29.33-7.41s5.92-14.22-5.63-28.74-24-13.93-24-13.93,3.26-10.07-14.52-30.22-31.7-17.18-31.7-17.18-3.49-24.3-33-25.19c-29.52.89-33,25.19-33,25.19s-13.93-3-31.71,17.18-14.52,30.22-14.52,30.22-12.44-.59-24,13.93-5.63,28.74-5.63,28.74-16.59-3.56-29.33,7.41S99,250.11,99,250.11s-.3,20.26,12.44,31.22,29.33,7.41,29.33,7.41-5.92,14.22,5.63,28.74,24,13.93,24,13.93-3.26,10.07,14.52,30.22,31.71,17.18,31.71,17.18,3.48,24.3,33,25.19c29.51-.89,33-25.19,33-25.19s13.92,3,31.7-17.18,14.52-30.22,14.52-30.22,12.44.59,24-13.93,5.63-28.74,5.63-28.74,16.59,3.56,29.33-7.41,12.45-31.22,12.45-31.22S400.55,229.85,387.81,218.89Zm-10.67,47.33c-6.22,8.3-16.59,13.63-28.14,11s-19.56-14.81-19.56-14.81,8,17.18,6.52,27.55S325.59,308,325.59,308s-3.85-11.26-8-14.52-11.26-3.56-11.26-3.56A47.52,47.52,0,0,1,313.44,300c3.56,6.52,3.26,15.11-2.07,27.26s-16.9,18.15-23.41,18.85c-4.11.44-5.77-.73-9.19-1.51-.48-2.49-2.25-5.05-7.1-9.05-8.59-5.92-16-3.55-16-3.55s15.71,9.18,16,32.59-22,22.82-22,22.82-22.34.59-22-22.82,16-32.59,16-32.59-7.41-2.37-16,3.55c-4.85,4-6.63,6.56-7.11,9.05-3.42.78-5.08,1.95-9.19,1.51-6.5-.7-18.07-6.7-23.4-18.85s-5.63-20.74-2.08-27.26a48,48,0,0,1,7.11-10.08s-7.11.3-11.26,3.56-8,14.52-8,14.52-8.89-7.7-10.37-18.08,6.52-27.55,6.52-27.55-8,12.15-19.55,14.81-21.93-2.66-28.15-11S118,250.11,118,250.11s-2.07-7.81,4.15-16.11,16.59-13.63,28.15-11,19.55,14.81,19.55,14.81-8-17.18-6.52-27.55,10.37-18.08,10.37-18.08,3.86,11.26,8,14.52,11.26,3.56,11.26,3.56a48,48,0,0,1-7.11-10.08c-3.55-6.52-3.26-15.11,2.08-27.26s16.9-18.15,23.4-18.85c4.11-.44,5.77.73,9.19,1.51.48,2.49,2.26,5,7.11,9,8.59,5.92,16,3.55,16,3.55s-15.7-9.18-16-32.59,22-22.82,22-22.82,22.33-.59,22,22.82-16,32.59-16,32.59,7.42,2.37,16-3.55c4.85-4,6.62-6.56,7.1-9,3.42-.78,5.08-2,9.19-1.51,6.51.7,18.07,6.7,23.41,18.85s5.63,20.74,2.07,27.26a47.52,47.52,0,0,1-7.11,10.08s7.11-.3,11.26-3.56,8-14.52,8-14.52,8.89,7.7,10.37,18.08-6.52,27.55-6.52,27.55,8-12.15,19.56-14.81,21.92,2.66,28.14,11,4.15,16.11,4.15,16.11S383.37,257.92,377.14,266.22Z" transform="translate(0.37 -0.11)"/><rect x="203.96" y="180.56" width="19.56" height="106.37"/><rect x="253" y="180.56" width="19.56" height="106.37"/><rect x="207.52" y="223.96" width="62.52" height="19.56"/><path d="M277.68,275.5l7.69.28s-2.08-9.78,4.44-9.19,4.74,7.11,3.56,9.19-16.3,24.59-16.3,24.59v7.7h27v-7.7H287.74L302,280.52a20.64,20.64,0,0,0,2.07-8.89c0-5-1.48-12.74-13.48-12.74C274.4,258.89,277.68,275.5,277.68,275.5Z" transform="translate(0.37 -0.11)"/></svg>