<svg id="Layer_1" data-name="Layer 1" xmlns="http://www.w3.org/2000/svg" viewBox="0 0 500 500"><defs><style>.cls-1{fill:#0288d1;}.cls-2{fill:#40c4ff;}</style></defs><title>electrify_hydro</title><ellipse class="cls-1" cx="250" cy="249.35" rx="250" ry="247.98"/><polygon class="cls-2" points="61.3 375.81 162.33 87.22 205.26 92.56 212.11 155.67 363.52 156.56 400.56 73 444.11 124.56 341.59 470.56 263.96 483.07 187.59 472.56 118.19 430.93 61.3 375.81"/><path d="M160.18,314.59c-4.82,16.3-16.79,125.24-13.92,143.71l-34.08-28.15,28.45-106.37Z" transform="translate(0.37 -0.11)"/><rect x="215.96" y="192.74" width="34.04" height="23.67"/><rect x="271.07" y="192.74" width="33.78" height="23.67"/><rect x="325" y="192.74" width="33.19" height="23.67"/><path d="M167.59,283.48c17-44.79,47.57-67.31,74.59-73.7l-21.55-5.1c1.41-1.54-21.11,15.75-20.45,13.32l1.63-46.82-31,41.19Z" transform="translate(0.37 -0.11)"/><path d="M216.18,263.63c-51.75,55.74-55.62,153.13-53.92,201.18L199,476.37c-6.56-97.6,15.14-150.74,18.37-161.78,0,0-22.23,30.22-33.48,80.89C180.33,332.37,216.18,263.63,216.18,263.63Z" transform="translate(0.37 -0.11)"/><path d="M233.52,275.78c6.72-25,32.29-69,45.77-72.67l19.78,5.33C261.06,225,243.47,262.48,233.52,275.78Z" transform="translate(0.37 -0.11)"/><path d="M294.66,249.11c10.32-29.2,33.88-42.85,35.93-44.43l20,1.76C317.55,218.17,296.93,246.61,294.66,249.11Z" transform="translate(0.37 -0.11)"/><path d="M284,246.44C218.67,329,208,413.41,207.07,474l27.33,6.44c-5-116.53,43.14-184.42,64.67-225.11,0,0-25.55,30-36.22,44.67C268.4,272.89,284,246.44,284,246.44Z" transform="translate(0.37 -0.11)"/><path d="M283.52,321.78c-42.48,65.85-41.2,136.13-41.34,150.89H270C254.38,409.87,278.9,340.2,283.52,321.78Z" transform="translate(0.37 -0.11)"/><polygon points="317.89 464.7 423.96 97.89 483.22 214.04 451.22 371.38 373 454.63 317.89 464.7"/><polygon points="53 365.44 153.74 75.96 201.74 75.96 228.41 91.96 228.41 139.95 364.7 139.95 390.78 73 407.96 75.96 291.22 478.93 263.96 483.07 358.19 172.56 205.89 175.01 130.04 438.63 80.26 394.19 176.85 106.78 163.22 107.37 66.63 378.97 53 365.44"/><path d="M41.37,326.74c2.84,3.29,53.84,72.95,53.86,71.44,39.89,32.07,51.87,55.91,101.74,72,12.92,5.88,14.46,3.12,36.19,2.64,52.28,2.95,86.51-16.82,124.65-34.68l5.33,26.66c-86.58,24.15-143.61,29.52-199.79,5-55.17-35.6-90.66-65-122-106.37Z" transform="translate(0.37 -0.11)"/><polygon points="374.78 67.67 430.48 130.48 438.19 109.74 383.67 54.63 374.78 67.67"/><path d="M249.63,40.11A210,210,0,0,1,398.12,398.6a210.18,210.18,0,0,1-241.8,39.7A212,212,0,0,1,84.4,379.74,210,210,0,0,1,249.63,40.11m0-40C111.56.11-.37,112-.37,250.11a250,250,0,0,0,250,250c138.07,0,250-111.93,250-250S387.7.11,249.63.11Z" transform="translate(0.37 -0.11)"/></svg>