<svg id="Layer_1" data-name="Layer 1" xmlns="http://www.w3.org/2000/svg" viewBox="0 0 500 500"><defs><style>.cls-1{fill:#c6ff00;}.cls-2{fill:#ff0;}</style></defs><title>electrify_battery</title><rect class="cls-1" x="92.85" y="93.33" width="313.55" height="313.55" transform="translate(-103.37 249.66) rotate(-45)"/><path d="M249.63,56.68,443.06,250.11,249.63,443.54,56.2,250.11,249.63,56.68m0-56.57-250,250,250,250,250-250-250-250Z" transform="translate(0.37 -0.11)"/><polygon class="cls-2" points="188.11 257 188.11 346.48 306.63 346.48 306.63 210.19 188.11 257"/><path d="M295.74,166.89V336.22H197.52V166.89h98.22m20-20H177.52V356.22H315.74V146.89Z" transform="translate(0.37 -0.11)"/><polygon points="233 128.11 199.22 128.11 199.22 165.44 233 165.44 233 128.11 233 128.11"/><polygon points="286.33 133.89 264.56 133.89 264.56 165.44 286.33 165.44 286.33 133.89 286.33 133.89"/><polygon points="191.67 276.26 303.07 225.59 303.07 155.96 191.67 155.96 191.67 276.26"/><rect x="213.3" y="289.59" width="67.56" height="15.7"/><rect class="cls-2" x="240.56" y="163.07" width="16" height="67.56"/><rect class="cls-2" x="213.3" y="188.11" width="70.19" height="16"/><polygon points="157.89 230.63 157.89 283.67 139.52 272.41 139.52 307.67 77 236.56 120.26 250 120.56 206.33 157.89 230.63"/><polygon points="338.15 270.15 338.15 217.11 356.52 228.37 356.52 193.11 419.04 264.22 375.78 250.78 375.48 294.44 338.15 270.15"/></svg>