<?xml version="1.0" encoding="utf-8"?>
<!-- Generator: Adobe Illustrator 24.0.1, SVG Export Plug-In . SVG Version: 6.00 Build 0)  -->
<svg version="1.1" id="Layer_1" xmlns="http://www.w3.org/2000/svg" xmlns:xlink="http://www.w3.org/1999/xlink" x="0px" y="0px"
	 viewBox="0 0 328.1 73.8" style="enable-background:new 0 0 328.1 73.8;" xml:space="preserve">
<style type="text/css">
	.st0{fill:#0084F8;}
	.st1{display:none;fill:#2121F9;}
	.st2{fill:none;stroke:#0084F8;stroke-width:0.5;stroke-miterlimit:10;}
</style>
<g>
	<g>
		<path class="st0" d="M41.9,46.3v12.8H0V8.7l13.6-3.1l0,3.1l14-3.1l0,3.1L41,5.6v15.9H16.7v5.9H38v12.2H16.7v6.6H41.9z"/>
		<path class="st0" d="M47,8.7l16.3-3v53.4H47V8.7z"/>
		<path class="st0" d="M111.1,43.2H83.8c0.6,1.5,1.5,2.6,2.9,3.4c1.3,0.8,3,1.2,5,1.2c1.7,0,3.2-0.2,4.4-0.6
			c1.2-0.4,2.5-1.2,3.9-2.2l8.5,8.6c-3.8,4.2-9.6,6.3-17.2,6.3c-4.8,0-8.9-0.9-12.5-2.6c-3.6-1.8-6.4-4.2-8.4-7.3
			c-2-3.1-3-6.6-3-10.5c0-3.9,1-7.5,2.9-10.5c1.9-3.1,4.6-5.5,8-7.2c3.4-1.7,7.2-2.6,11.4-2.6c4,0,7.6,0.8,10.9,2.4
			c3.3,1.6,5.9,3.9,7.8,7c1.9,3.1,2.9,6.7,2.9,11C111.3,39.6,111.3,40.9,111.1,43.2z M85.6,31.5c-1.1,0.9-1.8,2.2-2.2,3.9h12.7
			c-0.3-1.6-1.1-2.9-2.2-3.9c-1.1-0.9-2.5-1.4-4.2-1.4C88.1,30.1,86.7,30.6,85.6,31.5z"/>
		<path class="st0" d="M125.6,57.2c-3.5-1.7-6.3-4.2-8.3-7.3c-2-3.1-3-6.6-3-10.6c0-3.9,1-7.5,3-10.5c2-3.1,4.8-5.5,8.3-7.2
			c3.5-1.7,7.5-2.6,12-2.6c4.8,0,8.9,1,12.3,3.1c3.4,2.1,5.8,4.9,7.1,8.6l-12.6,6.2c-1.5-3.5-3.8-5.2-6.8-5.2c-1.9,0-3.5,0.7-4.8,2
			c-1.3,1.3-1.9,3.2-1.9,5.7c0,2.5,0.6,4.4,1.9,5.8c1.3,1.3,2.9,2,4.8,2c3,0,5.3-1.7,6.8-5.2l12.6,6.2c-1.3,3.6-3.6,6.5-7.1,8.6
			c-3.4,2.1-7.5,3.1-12.3,3.1C133.1,59.8,129.1,59,125.6,57.2z"/>
		<path class="st0" d="M191.5,57.7c-2.4,1.4-5.8,2.1-10,2.1c-5.5,0-9.8-1.3-12.7-4s-4.5-6.7-4.5-12V33.8h-5.4V21.9h5.4V8.7l16.3-3
			v16.1h8.1v11.9h-8.1v9.9c0,1.2,0.3,2.1,0.9,2.8c0.6,0.7,1.4,1,2.4,1c1.4,0,2.6-0.4,3.7-1.1L191.5,57.7z"/>
		<path class="st0" d="M223.8,19v14.4c-1.3-0.2-2.5-0.3-3.6-0.3c-5.6,0-8.4,2.8-8.4,8.5v17.5h-16.3V19.7l15.5-2.9V24
			C213.9,20.7,218.2,19,223.8,19z"/>
		<path class="st1" d="M229.4,14.2c-1.8-1.6-2.7-3.5-2.7-5.9c0-2.4,0.9-4.4,2.7-5.9c1.8-1.6,4.2-2.3,7.1-2.3c3,0,5.4,0.7,7.1,2.2
			c1.8,1.5,2.7,3.4,2.7,5.8c0,2.5-0.9,4.5-2.7,6.2c-1.8,1.6-4.2,2.4-7.1,2.4C233.6,16.6,231.2,15.8,229.4,14.2z M228.4,19.7h16.3
			v39.4h-16.3V19.7z"/>
		<path class="st0" d="M228.8,19.7h15.6c0,0-0.6,6.9-0.6,17.1s2.8,22.3,2.8,22.3h-20c0,0,2.8-12.1,2.8-22.3S228.8,19.7,228.8,19.7z"
			/>
		<path class="st0" d="M269.4,21.9h8.6v11.9h-8.1v25.3h-16.3V33.8h-5.4V21.9h5.4v-0.2c0-5.1,1.5-9.2,4.6-12.2c3.1-3,7.4-4.5,13-4.5
			c1.8,0,3.6,0.2,5.3,0.5c1.7,0.3,3.2,0.8,4.3,1.4L277,18.2c-1.3-0.6-2.6-0.9-3.7-0.9c-1.2,0-2.1,0.4-2.8,1.1
			C269.8,19.1,269.4,20.3,269.4,21.9L269.4,21.9z"/>
		<path class="st0" d="M328.1,19.7l-16.2,40.2c-2.1,5.1-4.6,8.7-7.7,10.8c-3.1,2.1-6.8,3.1-11.3,3.1c-2.2,0-4.4-0.3-6.7-1
			c-2.2-0.6-4-1.5-5.3-2.6l5.4-11.2c0.8,0.6,1.7,1.1,2.8,1.5c1,0.4,2,0.6,3,0.6c1.8,0,3.1-0.5,4-1.6l-16.6-39.9h16.7l8.1,21.1
			l8.3-21.1H328.1z"/>
	</g>
	<path class="st2" d="M63.2,5.9c0,0,30,7.2,54,7.2S164.4,9,164.4,9"/>
	<circle class="st0" cx="238.1" cy="12.8" r="3.4"/>
	<circle class="st0" cx="242.8" cy="8.9" r="4.8"/>
	<ellipse class="st0" cx="113" cy="10.5" rx="2.1" ry="2.3"/>
	<ellipse class="st0" cx="113" cy="7" rx="1.4" ry="1.3"/>
	<polyline class="st0" points="115.9,7.1 114.3,7.4 114.2,6.5 	"/>
	<polyline class="st0" points="109.7,15.7 111.3,11.4 112.4,12.4 	"/>
</g>
</svg>
