<svg width="300" height="68" viewBox="0 0 300 68" fill="none" xmlns="http://www.w3.org/2000/svg">
<path d="M38.3115 42.6612V54.4553H0V8.01625L12.4352 5.15988V8.01625L25.2362 5.15988V8.01625L37.4886 5.15988V19.8103H15.2697V25.2466H34.7455V36.4878H15.2697V42.5691H38.3115V42.6612Z" fill="#0084F8"/>
<path d="M42.9747 8.01624L57.8787 5.25201V54.4553H42.9747V8.01624Z" fill="#0084F8"/>
<path d="M101.585 39.8049H76.623C77.1716 41.187 77.9945 42.2005 79.2746 42.9376C80.4633 43.6748 82.0177 44.0433 83.8464 44.0433C85.4008 44.0433 86.7723 43.8591 87.8696 43.4905C88.9668 43.1219 90.1555 42.3848 91.4356 41.4634L99.2076 49.3875C95.733 53.2574 90.4298 55.1924 83.4807 55.1924C79.0918 55.1924 75.3429 54.3631 72.0512 52.7967C68.7595 51.1382 66.1993 48.9268 64.3706 46.0704C62.5419 43.2141 61.6276 39.9891 61.6276 36.3956C61.6276 32.8021 62.5419 29.4851 64.2792 26.7208C66.0165 23.8645 68.4852 21.6531 71.594 20.0867C74.7028 18.5203 78.1774 17.691 82.0177 17.691C85.6751 17.691 88.9668 18.4282 91.9842 19.9024C95.0015 21.3767 97.3789 23.4959 99.1161 26.3523C100.853 29.2086 101.768 32.5257 101.768 36.4878C101.768 36.4878 101.768 37.6856 101.585 39.8049ZM78.2688 29.0244C77.263 29.8536 76.623 31.0515 76.2573 32.6179H87.8696C87.5953 31.1436 86.8638 29.9458 85.858 29.0244C84.8522 28.1951 83.5721 27.7344 82.0177 27.7344C80.5547 27.7344 79.2746 28.1951 78.2688 29.0244Z" fill="#0084F8"/>
<path d="M114.843 52.7046C111.643 51.1382 109.083 48.8347 107.254 45.9783C105.425 43.122 104.511 39.897 104.511 36.2114C104.511 32.6179 105.425 29.3008 107.254 26.5366C109.083 23.6802 111.643 21.4688 114.843 19.9024C118.043 18.336 121.701 17.5068 125.815 17.5068C130.204 17.5068 133.953 18.4282 137.062 20.3631C140.171 22.2981 142.365 24.878 143.554 28.2873L132.033 34C130.661 30.7751 128.558 29.2087 125.815 29.2087C124.078 29.2087 122.615 29.8537 121.426 31.0515C120.238 32.2493 119.689 34 119.689 36.3035C119.689 38.607 120.238 40.3577 121.426 41.6477C122.615 42.8455 124.078 43.4905 125.815 43.4905C128.558 43.4905 130.661 41.9241 132.033 38.6992L143.554 44.4119C142.365 47.729 140.262 50.4011 137.062 52.336C133.953 54.271 130.204 55.1924 125.815 55.1924C121.701 55.1003 118.043 54.3631 114.843 52.7046Z" fill="#0084F8"/>
<path d="M175.099 53.1653C172.905 54.4553 169.796 55.1003 165.956 55.1003C160.927 55.1003 156.995 53.9024 154.343 51.4146C151.692 48.9268 150.229 45.2412 150.229 40.3577V31.1436H145.291V20.1788H150.229V8.01624L165.133 5.25201V20.0867H172.539V31.0515H165.133V40.1734C165.133 41.2791 165.407 42.1084 165.956 42.7534C166.504 43.3984 167.236 43.6748 168.15 43.6748C169.43 43.6748 170.527 43.3062 171.533 42.6612L175.099 53.1653Z" fill="#0084F8"/>
<path d="M204.633 17.5067V30.775C203.444 30.5908 202.347 30.4986 201.341 30.4986C196.221 30.4986 193.66 33.0786 193.66 38.3306V54.4552H178.756V18.1517L192.929 15.4796V22.1138C195.581 19.0731 199.512 17.5067 204.633 17.5067Z" fill="#0084F8"/>
<path d="M209.204 18.1517H223.468C223.468 18.1517 222.92 24.5095 222.92 33.9078C222.92 43.3062 225.48 54.4552 225.48 54.4552H207.193C207.193 54.4552 209.753 43.3062 209.753 33.9078C209.753 24.5095 209.204 18.1517 209.204 18.1517Z" fill="#0084F8"/>
<path d="M246.327 20.1789H254.191V31.1436H246.785V54.4553H231.881V31.1436H226.943V20.1789H231.881V19.9946C231.881 15.2954 233.252 11.5176 236.087 8.75339C238.921 5.98916 242.853 4.60704 247.973 4.60704C249.619 4.60704 251.265 4.79133 252.819 5.06775C254.374 5.34417 255.745 5.80488 256.751 6.35772L253.276 16.7696C252.088 16.2168 250.899 15.9404 249.893 15.9404C248.796 15.9404 247.973 16.3089 247.333 16.9539C246.693 17.5989 246.327 18.7046 246.327 20.1789Z" fill="#0084F8"/>
<path d="M300 18.1517L285.187 55.1924C283.267 59.8916 280.981 63.2087 278.147 65.1436C275.312 67.0786 271.929 68 267.815 68C265.803 68 263.792 67.7236 261.689 67.0786C259.677 66.5257 258.031 65.6965 256.842 64.6829L261.78 54.3631C262.511 54.916 263.334 55.3767 264.34 55.7452C265.254 56.1138 266.169 56.2981 267.083 56.2981C268.729 56.2981 269.918 55.8374 270.741 54.8238L255.562 18.0596H270.832L278.238 37.5013L285.827 18.0596H300V18.1517Z" fill="#0084F8"/>
<path d="M57.7873 5.43632C57.7873 5.43632 85.2179 12.0705 107.162 12.0705C129.107 12.0705 150.32 8.29269 150.32 8.29269" stroke="#0084F8" stroke-miterlimit="10"/>
<path d="M217.708 14.9268C219.425 14.9268 220.817 13.5242 220.817 11.794C220.817 10.0638 219.425 8.66125 217.708 8.66125C215.991 8.66125 214.599 10.0638 214.599 11.794C214.599 13.5242 215.991 14.9268 217.708 14.9268Z" fill="#0084F8"/>
<path d="M222.005 12.6233C224.429 12.6233 226.394 10.6432 226.394 8.20053C226.394 5.7579 224.429 3.77777 222.005 3.77777C219.582 3.77777 217.617 5.7579 217.617 8.20053C217.617 10.6432 219.582 12.6233 222.005 12.6233Z" fill="#0084F8"/>
</svg>
