<svg width="300" height="70" viewBox="0 0 300 70" fill="none" xmlns="http://www.w3.org/2000/svg">
<path d="M38.3115 42.3346V54.0384H0V7.95486L12.4352 5.12036V7.95486L25.2362 5.12036V7.95486L37.4886 5.12036V19.6586H15.2697V25.0533H34.7455V36.2084H15.2697V42.2432H38.3115V42.3346Z" fill="#0084F8"/>
<path d="M42.9747 7.95486L57.8787 5.21179V54.0384H42.9747V7.95486Z" fill="#0084F8"/>
<path d="M101.585 39.5002H76.623C77.1716 40.8717 77.9945 41.8775 79.2746 42.609C80.4633 43.3405 82.0177 43.7062 83.8464 43.7062C85.4008 43.7062 86.7723 43.5234 87.8696 43.1576C88.9668 42.7919 90.1554 42.0604 91.4355 41.146L99.2076 49.0095C95.733 52.8498 90.4298 54.7699 83.4807 54.7699C79.0918 54.7699 75.3429 53.947 72.0512 52.3926C68.7595 50.7468 66.1993 48.5523 64.3706 45.7178C62.5419 42.8833 61.6276 39.6831 61.6276 36.1171C61.6276 32.5511 62.5419 29.2594 64.2792 26.5163C66.0165 23.6818 68.4852 21.4874 71.594 19.933C74.7028 18.3786 78.1774 17.5557 82.0177 17.5557C85.6751 17.5557 88.9668 18.2871 91.9842 19.7501C95.0015 21.2131 97.3789 23.3161 99.1161 26.1506C100.853 28.9851 101.768 32.2768 101.768 36.2085C101.768 36.2085 101.768 37.3972 101.585 39.5002ZM78.2688 28.8022C77.263 29.6252 76.623 30.8138 76.2572 32.3682H87.8696C87.5953 30.9053 86.8638 29.7166 85.858 28.8022C84.8522 27.9793 83.5721 27.5221 82.0177 27.5221C80.5547 27.5221 79.2746 27.9793 78.2688 28.8022Z" fill="#0084F8"/>
<path d="M114.843 52.3012C111.643 50.7468 109.083 48.4609 107.254 45.6264C105.425 42.7919 104.511 39.5916 104.511 35.9342C104.511 32.3682 105.425 29.0766 107.254 26.3335C109.083 23.499 111.643 21.3045 114.843 19.7501C118.043 18.1957 121.701 17.3728 125.815 17.3728C130.204 17.3728 133.953 18.2872 137.062 20.2073C140.171 22.1275 142.365 24.6876 143.554 28.0708L132.033 33.7398C130.661 30.5395 128.558 28.9851 125.815 28.9851C124.078 28.9851 122.615 29.6252 121.426 30.8138C120.238 32.0025 119.689 33.7398 119.689 36.0257C119.689 38.3115 120.238 40.0488 121.426 41.3289C122.615 42.5176 124.078 43.1576 125.815 43.1576C128.558 43.1576 130.661 41.6032 132.033 38.403L143.554 44.072C142.365 47.3637 140.262 50.0153 137.062 51.9354C133.953 53.8556 130.204 54.7699 125.815 54.7699C121.701 54.6785 118.043 53.947 114.843 52.3012Z" fill="#0084F8"/>
<path d="M175.099 52.7583C172.905 54.0384 169.796 54.6784 165.956 54.6784C160.927 54.6784 156.995 53.4898 154.343 51.021C151.692 48.5522 150.229 44.8948 150.229 40.0487V30.9052H145.291V20.0244H150.229V7.95486L165.133 5.21179V19.9329H172.539V30.8137H165.133V39.8659C165.133 40.9631 165.407 41.786 165.956 42.4261C166.504 43.0661 167.236 43.3404 168.15 43.3404C169.43 43.3404 170.527 42.9747 171.533 42.3346L175.099 52.7583Z" fill="#0084F8"/>
<path d="M204.633 17.3728V30.5395C203.444 30.3566 202.347 30.2652 201.341 30.2652C196.221 30.2652 193.66 32.8254 193.66 38.0372V54.0384H178.756V18.0128L192.929 15.3612V21.9446C195.581 18.9272 199.512 17.3728 204.633 17.3728Z" fill="#0084F8"/>
<path d="M209.205 18.0128H223.468C223.468 18.0128 222.5 24.3219 222.5 33.6483C222.5 42.9747 226.5 54.0384 226.5 54.0384H206C206 54.0384 210 42.9747 210 33.6483C210 24.3219 209.205 18.0128 209.205 18.0128Z" fill="#0084F8"/>
<path d="M246.327 20.0244H254.191V30.9052H246.785V54.0384H231.881V30.9052H226.943V20.0244H231.881V19.8415C231.881 15.1783 233.252 11.4294 236.087 8.68638C238.921 5.94331 242.853 4.57178 247.973 4.57178C249.619 4.57178 251.265 4.75465 252.819 5.02896C254.374 5.30326 255.745 5.76044 256.751 6.30905L253.276 16.6413C252.088 16.0927 250.899 15.8183 249.893 15.8183C248.796 15.8183 247.973 16.1841 247.333 16.8241C246.693 17.4642 246.327 18.5614 246.327 20.0244Z" fill="#0084F8"/>
<path d="M300 18.0128L285.187 54.7699C283.267 59.4331 280.981 62.7248 278.147 64.6449C275.312 66.5651 271.929 67.4794 267.815 67.4794C265.803 67.4794 263.792 67.2051 261.689 66.5651C259.677 66.0165 258.031 65.1936 256.842 64.1878L261.78 53.947C262.511 54.4956 263.334 54.9528 264.34 55.3185C265.254 55.6843 266.169 55.8671 267.083 55.8671C268.729 55.8671 269.918 55.41 270.741 54.4042L255.562 17.9214H270.832L278.238 37.2143L285.827 17.9214H300V18.0128Z" fill="#0084F8"/>
<path d="M57.7873 5.39465C57.7873 5.39465 85.2179 11.978 107.162 11.978C129.107 11.978 150.32 8.22915 150.32 8.22915" stroke="#0084F8" stroke-width="0.5" stroke-miterlimit="10"/>
<path d="M217.708 14.8126C219.425 14.8126 220.817 13.4207 220.817 11.7038C220.817 9.98683 219.425 8.59497 217.708 8.59497C215.991 8.59497 214.599 9.98683 214.599 11.7038C214.599 13.4207 215.991 14.8126 217.708 14.8126Z" fill="#0084F8"/>
<path d="M222.005 12.5267C224.429 12.5267 226.394 10.5617 226.394 8.13781C226.394 5.71388 224.429 3.7489 222.005 3.7489C219.582 3.7489 217.617 5.71388 217.617 8.13781C217.617 10.5617 219.582 12.5267 222.005 12.5267Z" fill="#0084F8"/>
<path d="M103.322 11.7037C104.383 11.7037 105.242 10.7622 105.242 9.6007C105.242 8.43923 104.383 7.49768 103.322 7.49768C102.262 7.49768 101.402 8.43923 101.402 9.6007C101.402 10.7622 102.262 11.7037 103.322 11.7037Z" fill="#0084F8"/>
<path d="M103.322 7.58912C104.029 7.58912 104.602 7.05693 104.602 6.40045C104.602 5.74397 104.029 5.21179 103.322 5.21179C102.615 5.21179 102.042 5.74397 102.042 6.40045C102.042 7.05693 102.615 7.58912 103.322 7.58912Z" fill="#0084F8"/>
<path d="M105.974 6.49197L104.511 6.76628L104.419 5.94336" fill="#0084F8"/>
<path d="M100.305 14.3553L101.768 10.4236L102.774 11.3379" fill="#0084F8"/>
<path d="M2.926 59.762H0.056V57.2H9.1V59.762H6.23V67H2.926V59.762ZM13.6347 59.202C14.9787 59.202 16.0054 59.5053 16.7147 60.112C17.424 60.7093 17.7787 61.6333 17.7787 62.884V67H14.8387V65.992C14.4747 66.7573 13.7514 67.14 12.6687 67.14C12.062 67.14 11.544 67.0373 11.1147 66.832C10.6947 66.6173 10.3727 66.3327 10.1487 65.978C9.93402 65.614 9.82669 65.208 9.82669 64.76C9.82669 64.004 10.116 63.43 10.6947 63.038C11.2734 62.646 12.1507 62.45 13.3267 62.45H14.6007C14.498 61.8527 14.0174 61.554 13.1587 61.554C12.8134 61.554 12.4634 61.61 12.1087 61.722C11.754 61.8247 11.4507 61.9693 11.1987 62.156L10.1907 60.07C10.6294 59.7993 11.1567 59.5893 11.7727 59.44C12.398 59.2813 13.0187 59.202 13.6347 59.202ZM13.6207 65.236C13.8447 65.236 14.0454 65.1753 14.2227 65.054C14.4 64.9327 14.5307 64.7507 14.6147 64.508V63.976H13.8307C13.1867 63.976 12.8647 64.1907 12.8647 64.62C12.8647 64.7973 12.93 64.9467 13.0607 65.068C13.2007 65.18 13.3874 65.236 13.6207 65.236ZM23.5141 64.648L23.0101 65.194V67H19.8461V56.612H23.0101V61.568L25.2081 59.342H28.9461L25.7821 62.66L29.1981 67H25.3761L23.5141 64.648ZM38.3191 63.164C38.3191 63.2107 38.3051 63.458 38.2771 63.906H32.9571C33.0691 64.1953 33.2558 64.4193 33.5171 64.578C33.7784 64.7273 34.1051 64.802 34.4971 64.802C34.8331 64.802 35.1131 64.76 35.3371 64.676C35.5704 64.592 35.8224 64.4473 36.0931 64.242L37.7451 65.908C36.9984 66.7293 35.8831 67.14 34.3991 67.14C33.4751 67.14 32.6631 66.972 31.9631 66.636C31.2631 66.2907 30.7218 65.8147 30.3391 65.208C29.9564 64.6013 29.7651 63.92 29.7651 63.164C29.7651 62.3987 29.9518 61.7173 30.3251 61.12C30.7078 60.5133 31.2258 60.042 31.8791 59.706C32.5418 59.37 33.2838 59.202 34.1051 59.202C34.8798 59.202 35.5844 59.356 36.2191 59.664C36.8631 59.972 37.3718 60.4247 37.7451 61.022C38.1278 61.6193 38.3191 62.3333 38.3191 63.164ZM34.1331 61.358C33.8064 61.358 33.5358 61.4467 33.3211 61.624C33.1064 61.8013 32.9664 62.0533 32.9011 62.38H35.3651C35.2998 62.0627 35.1598 61.8153 34.9451 61.638C34.7304 61.4513 34.4598 61.358 34.1331 61.358ZM49.0308 67.14C48.1628 67.14 47.3835 66.972 46.6928 66.636C46.0115 66.3 45.4748 65.8287 45.0828 65.222C44.7002 64.6153 44.5088 63.9293 44.5088 63.164C44.5088 62.3987 44.7002 61.7173 45.0828 61.12C45.4748 60.5133 46.0115 60.042 46.6928 59.706C47.3835 59.37 48.1628 59.202 49.0308 59.202C49.9642 59.202 50.7622 59.4027 51.4248 59.804C52.0875 60.2053 52.5448 60.7607 52.7968 61.47L50.3468 62.674C50.0482 62.002 49.6048 61.666 49.0168 61.666C48.6435 61.666 48.3308 61.7967 48.0788 62.058C47.8362 62.3193 47.7148 62.688 47.7148 63.164C47.7148 63.6493 47.8362 64.0227 48.0788 64.284C48.3308 64.5453 48.6435 64.676 49.0168 64.676C49.6048 64.676 50.0482 64.34 50.3468 63.668L52.7968 64.872C52.5448 65.5813 52.0875 66.1367 51.4248 66.538C50.7622 66.9393 49.9642 67.14 49.0308 67.14ZM59.5481 59.202C60.4908 59.202 61.2468 59.4867 61.8161 60.056C62.3948 60.6253 62.6841 61.484 62.6841 62.632V67H59.5201V63.178C59.5201 62.3007 59.2075 61.862 58.5821 61.862C58.2275 61.862 57.9381 61.988 57.7141 62.24C57.4995 62.4827 57.3921 62.87 57.3921 63.402V67H54.2281V56.612H57.3921V59.958C57.9801 59.454 58.6988 59.202 59.5481 59.202ZM68.1882 59.202C69.5322 59.202 70.5589 59.5053 71.2682 60.112C71.9775 60.7093 72.3322 61.6333 72.3322 62.884V67H69.3922V65.992C69.0282 66.7573 68.3049 67.14 67.2222 67.14C66.6155 67.14 66.0975 67.0373 65.6682 66.832C65.2482 66.6173 64.9262 66.3327 64.7022 65.978C64.4875 65.614 64.3802 65.208 64.3802 64.76C64.3802 64.004 64.6695 63.43 65.2482 63.038C65.8269 62.646 66.7042 62.45 67.8802 62.45H69.1542C69.0515 61.8527 68.5709 61.554 67.7122 61.554C67.3669 61.554 67.0169 61.61 66.6622 61.722C66.3075 61.8247 66.0042 61.9693 65.7522 62.156L64.7442 60.07C65.1829 59.7993 65.7102 59.5893 66.3262 59.44C66.9515 59.2813 67.5722 59.202 68.1882 59.202ZM68.1742 65.236C68.3982 65.236 68.5989 65.1753 68.7762 65.054C68.9535 64.9327 69.0842 64.7507 69.1682 64.508V63.976H68.3842C67.7402 63.976 67.4182 64.1907 67.4182 64.62C67.4182 64.7973 67.4835 64.9467 67.6142 65.068C67.7542 65.18 67.9409 65.236 68.1742 65.236ZM77.4096 60.168C77.9696 59.524 78.7956 59.202 79.8876 59.202V62.002C79.6356 61.9647 79.4023 61.946 79.1876 61.946C78.1049 61.946 77.5636 62.4967 77.5636 63.598V67H74.3996V59.342H77.4096V60.168ZM89.97 59.342V65.474C89.97 66.93 89.564 68.022 88.752 68.75C87.9494 69.4873 86.8014 69.856 85.308 69.856C84.5427 69.856 83.8287 69.772 83.166 69.604C82.5034 69.4453 81.9387 69.212 81.472 68.904L82.536 66.748C82.8347 66.972 83.2127 67.154 83.67 67.294C84.1274 67.434 84.566 67.504 84.986 67.504C85.6207 67.504 86.0827 67.3687 86.372 67.098C86.6614 66.8273 86.806 66.4307 86.806 65.908V65.768C86.33 66.3093 85.6254 66.58 84.692 66.58C84.0387 66.58 83.4274 66.4307 82.858 66.132C82.298 65.824 81.85 65.39 81.514 64.83C81.178 64.2607 81.01 63.612 81.01 62.884C81.01 62.156 81.178 61.512 81.514 60.952C81.85 60.392 82.298 59.9627 82.858 59.664C83.4274 59.356 84.0387 59.202 84.692 59.202C85.7374 59.202 86.4934 59.538 86.96 60.21V59.342H89.97ZM85.532 64.116C85.9054 64.116 86.2134 64.004 86.456 63.78C86.708 63.5467 86.834 63.248 86.834 62.884C86.834 62.52 86.708 62.226 86.456 62.002C86.2134 61.778 85.9054 61.666 85.532 61.666C85.1494 61.666 84.832 61.778 84.58 62.002C84.3374 62.226 84.216 62.52 84.216 62.884C84.216 63.248 84.342 63.5467 84.594 63.78C84.846 64.004 85.1587 64.116 85.532 64.116ZM100.217 63.164C100.217 63.2107 100.203 63.458 100.175 63.906H94.8551C94.9671 64.1953 95.1538 64.4193 95.4151 64.578C95.6765 64.7273 96.0031 64.802 96.3951 64.802C96.7311 64.802 97.0111 64.76 97.2351 64.676C97.4685 64.592 97.7205 64.4473 97.9911 64.242L99.6431 65.908C98.8965 66.7293 97.7811 67.14 96.2971 67.14C95.3731 67.14 94.5611 66.972 93.8611 66.636C93.1611 66.2907 92.6198 65.8147 92.2371 65.208C91.8545 64.6013 91.6631 63.92 91.6631 63.164C91.6631 62.3987 91.8498 61.7173 92.2231 61.12C92.6058 60.5133 93.1238 60.042 93.7771 59.706C94.4398 59.37 95.1818 59.202 96.0031 59.202C96.7778 59.202 97.4825 59.356 98.1171 59.664C98.7611 59.972 99.2698 60.4247 99.6431 61.022C100.026 61.6193 100.217 62.3333 100.217 63.164ZM96.0311 61.358C95.7045 61.358 95.4338 61.4467 95.2191 61.624C95.0045 61.8013 94.8645 62.0533 94.7991 62.38H97.2631C97.1978 62.0627 97.0578 61.8153 96.8431 61.638C96.6285 61.4513 96.3578 61.358 96.0311 61.358ZM109.851 67.056C109.161 67.056 108.535 66.8973 107.975 66.58C107.425 66.2627 106.991 65.824 106.673 65.264C106.356 64.6947 106.197 64.0553 106.197 63.346C106.197 62.6367 106.356 62.002 106.673 61.442C106.991 60.8727 107.425 60.4293 107.975 60.112C108.535 59.7947 109.161 59.636 109.851 59.636C110.542 59.636 111.163 59.7947 111.713 60.112C112.273 60.4293 112.712 60.8727 113.029 61.442C113.347 62.002 113.505 62.6367 113.505 63.346C113.505 64.0553 113.347 64.6947 113.029 65.264C112.712 65.824 112.273 66.2627 111.713 66.58C111.163 66.8973 110.542 67.056 109.851 67.056ZM109.851 66.426C110.411 66.426 110.911 66.2953 111.349 66.034C111.797 65.7727 112.147 65.4087 112.399 64.942C112.661 64.4753 112.791 63.9433 112.791 63.346C112.791 62.7487 112.661 62.2167 112.399 61.75C112.147 61.2833 111.797 60.9193 111.349 60.658C110.911 60.3967 110.411 60.266 109.851 60.266C109.291 60.266 108.787 60.3967 108.339 60.658C107.901 60.9193 107.551 61.2833 107.289 61.75C107.037 62.2167 106.911 62.7487 106.911 63.346C106.911 63.9433 107.037 64.4753 107.289 64.942C107.551 65.4087 107.901 65.7727 108.339 66.034C108.787 66.2953 109.291 66.426 109.851 66.426ZM118.085 57.158C117.17 57.158 116.713 57.648 116.713 58.628V59.692H119.051V60.294H116.727V67H116.027V60.294H114.683V59.692H116.027V58.572C116.027 57.956 116.204 57.466 116.559 57.102C116.914 56.738 117.413 56.556 118.057 56.556C118.337 56.556 118.603 56.598 118.855 56.682C119.116 56.7567 119.331 56.8733 119.499 57.032L119.219 57.564C118.92 57.2933 118.542 57.158 118.085 57.158ZM128.122 66.538C127.945 66.706 127.721 66.8367 127.45 66.93C127.189 67.014 126.914 67.056 126.624 67.056C125.99 67.056 125.5 66.8833 125.154 66.538C124.809 66.1833 124.636 65.6933 124.636 65.068V60.294H123.292V59.692H124.636V58.096H125.336V59.692H127.66V60.294H125.336V64.998C125.336 65.474 125.448 65.838 125.672 66.09C125.906 66.3327 126.246 66.454 126.694 66.454C127.152 66.454 127.53 66.3187 127.828 66.048L128.122 66.538ZM133.855 59.636C134.769 59.636 135.493 59.902 136.025 60.434C136.557 60.966 136.823 61.7313 136.823 62.73V67H136.123V62.786C136.123 61.9647 135.913 61.3393 135.493 60.91C135.082 60.4807 134.503 60.266 133.757 60.266C132.898 60.266 132.221 60.5227 131.727 61.036C131.232 61.5493 130.985 62.24 130.985 63.108V67H130.285V56.612H130.985V61.218C131.237 60.714 131.61 60.3267 132.105 60.056C132.599 59.776 133.183 59.636 133.855 59.636ZM146.102 63.514H139.816C139.835 64.0833 139.979 64.592 140.25 65.04C140.521 65.4787 140.885 65.8193 141.342 66.062C141.809 66.3047 142.331 66.426 142.91 66.426C143.386 66.426 143.825 66.342 144.226 66.174C144.637 65.9967 144.977 65.74 145.248 65.404L145.654 65.866C145.337 66.2487 144.935 66.5427 144.45 66.748C143.974 66.9533 143.456 67.056 142.896 67.056C142.168 67.056 141.519 66.8973 140.95 66.58C140.381 66.2627 139.933 65.824 139.606 65.264C139.289 64.704 139.13 64.0647 139.13 63.346C139.13 62.6367 139.279 62.002 139.578 61.442C139.886 60.8727 140.306 60.4293 140.838 60.112C141.37 59.7947 141.967 59.636 142.63 59.636C143.293 59.636 143.885 59.7947 144.408 60.112C144.94 60.42 145.355 60.854 145.654 61.414C145.962 61.974 146.116 62.6087 146.116 63.318L146.102 63.514ZM142.63 60.252C142.117 60.252 141.655 60.3687 141.244 60.602C140.833 60.826 140.502 61.148 140.25 61.568C140.007 61.9787 139.867 62.4453 139.83 62.968H145.43C145.402 62.4453 145.262 61.9787 145.01 61.568C144.758 61.1573 144.427 60.8353 144.016 60.602C143.605 60.3687 143.143 60.252 142.63 60.252ZM155.965 59.636C156.647 59.636 157.263 59.7947 157.813 60.112C158.364 60.4293 158.793 60.868 159.101 61.428C159.419 61.988 159.577 62.6273 159.577 63.346C159.577 64.0647 159.419 64.7087 159.101 65.278C158.793 65.838 158.364 66.2767 157.813 66.594C157.263 66.902 156.647 67.056 155.965 67.056C155.321 67.056 154.738 66.9067 154.215 66.608C153.693 66.3 153.287 65.8753 152.997 65.334V69.716H152.297V59.692H152.969V61.414C153.259 60.854 153.665 60.42 154.187 60.112C154.719 59.7947 155.312 59.636 155.965 59.636ZM155.923 66.426C156.483 66.426 156.987 66.2953 157.435 66.034C157.883 65.7727 158.233 65.4087 158.485 64.942C158.747 64.4753 158.877 63.9433 158.877 63.346C158.877 62.7487 158.747 62.2167 158.485 61.75C158.233 61.2833 157.883 60.9193 157.435 60.658C156.987 60.3967 156.483 60.266 155.923 60.266C155.363 60.266 154.859 60.3967 154.411 60.658C153.973 60.9193 153.623 61.2833 153.361 61.75C153.109 62.2167 152.983 62.7487 152.983 63.346C152.983 63.9433 153.109 64.4753 153.361 64.942C153.623 65.4087 153.973 65.7727 154.411 66.034C154.859 66.2953 155.363 66.426 155.923 66.426ZM164.811 67.056C164.12 67.056 163.495 66.8973 162.935 66.58C162.384 66.2627 161.95 65.824 161.633 65.264C161.315 64.6947 161.157 64.0553 161.157 63.346C161.157 62.6367 161.315 62.002 161.633 61.442C161.95 60.8727 162.384 60.4293 162.935 60.112C163.495 59.7947 164.12 59.636 164.811 59.636C165.501 59.636 166.122 59.7947 166.673 60.112C167.233 60.4293 167.671 60.8727 167.989 61.442C168.306 62.002 168.465 62.6367 168.465 63.346C168.465 64.0553 168.306 64.6947 167.989 65.264C167.671 65.824 167.233 66.2627 166.673 66.58C166.122 66.8973 165.501 67.056 164.811 67.056ZM164.811 66.426C165.371 66.426 165.87 66.2953 166.309 66.034C166.757 65.7727 167.107 65.4087 167.359 64.942C167.62 64.4753 167.751 63.9433 167.751 63.346C167.751 62.7487 167.62 62.2167 167.359 61.75C167.107 61.2833 166.757 60.9193 166.309 60.658C165.87 60.3967 165.371 60.266 164.811 60.266C164.251 60.266 163.747 60.3967 163.299 60.658C162.86 60.9193 162.51 61.2833 162.249 61.75C161.997 62.2167 161.871 62.7487 161.871 63.346C161.871 63.9433 161.997 64.4753 162.249 64.942C162.51 65.4087 162.86 65.7727 163.299 66.034C163.747 66.2953 164.251 66.426 164.811 66.426ZM181.085 59.692L178.313 67H177.655L175.191 60.658L172.713 67H172.069L169.297 59.692H169.969L172.405 66.216L174.897 59.692H175.499L177.977 66.202L180.441 59.692H181.085ZM188.892 63.514H182.606C182.625 64.0833 182.77 64.592 183.04 65.04C183.311 65.4787 183.675 65.8193 184.132 66.062C184.599 66.3047 185.122 66.426 185.7 66.426C186.176 66.426 186.615 66.342 187.016 66.174C187.427 65.9967 187.768 65.74 188.038 65.404L188.444 65.866C188.127 66.2487 187.726 66.5427 187.24 66.748C186.764 66.9533 186.246 67.056 185.686 67.056C184.958 67.056 184.31 66.8973 183.74 66.58C183.171 66.2627 182.723 65.824 182.396 65.264C182.079 64.704 181.92 64.0647 181.92 63.346C181.92 62.6367 182.07 62.002 182.368 61.442C182.676 60.8727 183.096 60.4293 183.628 60.112C184.16 59.7947 184.758 59.636 185.42 59.636C186.083 59.636 186.676 59.7947 187.198 60.112C187.73 60.42 188.146 60.854 188.444 61.414C188.752 61.974 188.906 62.6087 188.906 63.318L188.892 63.514ZM185.42 60.252C184.907 60.252 184.445 60.3687 184.034 60.602C183.624 60.826 183.292 61.148 183.04 61.568C182.798 61.9787 182.658 62.4453 182.62 62.968H188.22C188.192 62.4453 188.052 61.9787 187.8 61.568C187.548 61.1573 187.217 60.8353 186.806 60.602C186.396 60.3687 185.934 60.252 185.42 60.252ZM191.954 61.288C192.178 60.756 192.528 60.35 193.004 60.07C193.48 59.7807 194.059 59.636 194.74 59.636V60.322L194.572 60.308C193.76 60.308 193.125 60.5647 192.668 61.078C192.211 61.582 191.982 62.2867 191.982 63.192V67H191.282V59.692H191.954V61.288ZM209.907 59.636C210.813 59.636 211.522 59.902 212.035 60.434C212.558 60.966 212.819 61.7313 212.819 62.73V67H212.119V62.786C212.119 61.9647 211.919 61.3393 211.517 60.91C211.116 60.4807 210.556 60.266 209.837 60.266C209.016 60.266 208.363 60.5227 207.877 61.036C207.401 61.5493 207.163 62.24 207.163 63.108V67H206.463V62.786C206.463 61.9647 206.263 61.3393 205.861 60.91C205.46 60.4807 204.9 60.266 204.181 60.266C203.36 60.266 202.707 60.5227 202.221 61.036C201.745 61.5493 201.507 62.24 201.507 63.108V67H200.807V59.692H201.479V61.26C201.722 60.7467 202.081 60.35 202.557 60.07C203.043 59.7807 203.617 59.636 204.279 59.636C204.942 59.636 205.502 59.7853 205.959 60.084C206.426 60.3827 206.757 60.8213 206.953 61.4C207.196 60.8587 207.574 60.4293 208.087 60.112C208.61 59.7947 209.217 59.636 209.907 59.636ZM218.384 59.636C219.289 59.636 219.984 59.8693 220.47 60.336C220.955 60.7933 221.198 61.47 221.198 62.366V67H220.526V65.698C220.292 66.1273 219.952 66.4633 219.504 66.706C219.056 66.9393 218.519 67.056 217.894 67.056C217.082 67.056 216.438 66.8647 215.962 66.482C215.495 66.0993 215.262 65.5953 215.262 64.97C215.262 64.3633 215.476 63.8733 215.906 63.5C216.344 63.1173 217.04 62.926 217.992 62.926H220.498V62.338C220.498 61.6567 220.311 61.1387 219.938 60.784C219.574 60.4293 219.037 60.252 218.328 60.252C217.842 60.252 217.376 60.336 216.928 60.504C216.489 60.672 216.116 60.896 215.808 61.176L215.458 60.672C215.822 60.3453 216.26 60.0933 216.774 59.916C217.287 59.7293 217.824 59.636 218.384 59.636ZM217.992 66.482C218.598 66.482 219.112 66.342 219.532 66.062C219.961 65.782 220.283 65.376 220.498 64.844V63.472H218.006C217.287 63.472 216.764 63.6027 216.438 63.864C216.12 64.1253 215.962 64.4847 215.962 64.942C215.962 65.418 216.139 65.796 216.494 66.076C216.848 66.3467 217.348 66.482 217.992 66.482ZM224.964 61.288C225.188 60.756 225.538 60.35 226.014 60.07C226.49 59.7807 227.068 59.636 227.75 59.636V60.322L227.582 60.308C226.77 60.308 226.135 60.5647 225.678 61.078C225.22 61.582 224.992 62.2867 224.992 63.192V67H224.292V59.692H224.964V61.288ZM232.493 63.094L230.589 64.83V67H229.889V56.612H230.589V63.962L235.265 59.692H236.161L233.011 62.646L236.469 67H235.601L232.493 63.094ZM244.202 63.514H237.916C237.935 64.0833 238.08 64.592 238.35 65.04C238.621 65.4787 238.985 65.8193 239.442 66.062C239.909 66.3047 240.432 66.426 241.01 66.426C241.486 66.426 241.925 66.342 242.326 66.174C242.737 65.9967 243.078 65.74 243.348 65.404L243.754 65.866C243.437 66.2487 243.036 66.5427 242.55 66.748C242.074 66.9533 241.556 67.056 240.996 67.056C240.268 67.056 239.62 66.8973 239.05 66.58C238.481 66.2627 238.033 65.824 237.706 65.264C237.389 64.704 237.23 64.0647 237.23 63.346C237.23 62.6367 237.38 62.002 237.678 61.442C237.986 60.8727 238.406 60.4293 238.938 60.112C239.47 59.7947 240.068 59.636 240.73 59.636C241.393 59.636 241.986 59.7947 242.508 60.112C243.04 60.42 243.456 60.854 243.754 61.414C244.062 61.974 244.216 62.6087 244.216 63.318L244.202 63.514ZM240.73 60.252C240.217 60.252 239.755 60.3687 239.344 60.602C238.934 60.826 238.602 61.148 238.35 61.568C238.108 61.9787 237.968 62.4453 237.93 62.968H243.53C243.502 62.4453 243.362 61.9787 243.11 61.568C242.858 61.1573 242.527 60.8353 242.116 60.602C241.706 60.3687 241.244 60.252 240.73 60.252ZM250.218 66.538C250.04 66.706 249.816 66.8367 249.546 66.93C249.284 67.014 249.009 67.056 248.72 67.056C248.085 67.056 247.595 66.8833 247.25 66.538C246.904 66.1833 246.732 65.6933 246.732 65.068V60.294H245.388V59.692H246.732V58.096H247.432V59.692H249.756V60.294H247.432V64.998C247.432 65.474 247.544 65.838 247.768 66.09C248.001 66.3327 248.342 66.454 248.79 66.454C249.247 66.454 249.625 66.3187 249.924 66.048L250.218 66.538Z" fill="#0084F8"/>
</svg>
