<svg id="Layer_1" data-name="Layer 1" xmlns="http://www.w3.org/2000/svg" viewBox="0 0 500 500"><defs><style>.cls-1{fill:#7e57c2;}.cls-2{fill:#b388ff;}</style></defs><title>electrify_natgas</title><path class="cls-1" d="M249.63,480.11A230,230,0,0,1,87,87.48,230,230,0,1,1,412.26,412.74,228.46,228.46,0,0,1,249.63,480.11Z" transform="translate(0.37 -0.11)"/><path d="M249.63,40.11A210,210,0,0,1,398.12,398.6a210,210,0,0,1-297-297,208.62,208.62,0,0,1,148.5-61.51m0-40C111.56.11-.37,112-.37,250.11s111.93,250,250,250,250-111.93,250-250S387.7.11,249.63.11Z" transform="translate(0.37 -0.11)"/><path class="cls-2" d="M249.42,95.13l-37.94,72-37.3,46.22L148.6,265.79,142,306.68s8.43,37.33,10.21,40.89,24.56,48.52,24.56,48.52l46.62,21.7s58.76-1.78,62.68,0,30.18-21.7,30.18-21.7l22.63-29.63,16-35.78V304L349,260.75,330.9,222.22l-18.09-26.65-17.47-28.44-17.69-12.45-16.17-29.33Z" transform="translate(0.37 -0.11)"/><path d="M223.41,28.63S211.6,68.46,196.19,89.79s-38.62,52.45-57.59,75.56-49.87,65.22-54.22,96.89c-4.15,30.22,3.85,72.4,12.74,89.89,12.36,24.29,19.34,26.76,28.85,37.59,10,11.35,39.11,52.74,39.11,52.74L91.6,386.4S72,349.72,67.87,311.79s2.4-72.59,17.21-97.48,34.37-49.78,52.15-71.11,43.26-48,53.33-68.13,20.92-48.76,20.92-48.76Z" transform="translate(0.37 -0.11)"/><path d="M196.19,26.31s-9.57,22.83-22,40.07c-11.59,16.08-26.82,31.44-44.47,51.56-14.53,16.56-51.92,54.15-63.07,79.41-8.82,20-12.93,43.26-16,73.48s4.85,71.92,4.85,71.92L29.62,239.85s24.39-62.5,49.72-90.5,61.34-62.29,72.89-78.52c9.11-12.79,22-40.23,22-40.23Z" transform="translate(0.37 -0.11)"/><path d="M274.16,28.63S286,68.46,301.38,89.79,340,142.24,359,165.35s49.88,65.22,54.22,96.89c4.15,30.22-3.85,72.4-12.74,89.89-12.35,24.29-19.34,26.76-28.85,37.59-10,11.35-39.11,52.74-39.11,52.74L406,386.4s19.59-36.68,23.74-74.61-2.4-72.59-17.22-97.48-34.37-49.78-52.15-71.11-43.26-48-53.33-68.13-20.92-48.76-20.92-48.76Z" transform="translate(0.37 -0.11)"/><path d="M301.38,26.31s9.57,22.83,22,40.07c11.59,16.08,26.81,31.44,44.46,51.56,14.53,16.56,51.92,54.15,63.07,79.41,8.82,20,12.93,43.26,16,73.48s-4.85,71.92-4.85,71.92L468,239.85s-24.39-62.5-49.72-90.5-61.34-62.29-72.89-78.52C336.24,58,323.4,30.6,323.4,30.6Z" transform="translate(0.37 -0.11)"/><path d="M248.79,61.87a131.22,131.22,0,0,1-15.11,45.77c-12.89,23.11-29.78,42.23-53.34,74.67s-61.07,78.23-59.55,119.11c1.33,35.85,15.85,60.15,25.71,70.82,11.53,12.47,30.29,23.85,30.29,23.85H211s-23.11-15.11-40-48-12.45-60-3.56-87.11,26-55.78,49.08-87.34a222.85,222.85,0,0,0,32.26-65.11Z" transform="translate(0.37 -0.11)"/><path d="M248.79,61.87a131,131,0,0,0,15.11,45.77c12.89,23.11,29.78,42.23,53.33,74.67s61.08,78.23,59.56,119.11c-1.34,35.85-15.86,60.15-25.72,70.82-11.52,12.47-30.28,23.85-30.28,23.85H286.56s23.12-15.11,40-48,12.45-60,3.56-87.11-26-55.78-49.08-87.34a222.66,222.66,0,0,1-32.25-65.11Z" transform="translate(0.37 -0.11)"/><path d="M248.79,131.2s-1.34,18.22-9.78,35.55S216.79,199.2,201.68,225s-28.75,60.15-27.41,80.59a134.21,134.21,0,0,0,13.92,50.07c5.55,10.67,22.37,34.67,22.37,34.67h22.67S215,374.75,203,340.09s-8.3-57.41-.3-79.34c7-19.24,23.31-49.56,31.41-61.85,8.59-13,14.67-31.7,14.67-31.7Z" transform="translate(0.37 -0.11)"/><path d="M248.79,242.42s-1.78,17.22-4.45,26.11-23.85,46.22-20.59,78.67,25,43.11,25,43.11Z" transform="translate(0.37 -0.11)"/><polygon points="249.16 397.9 249.16 385.46 112.2 385.46 159.53 451.53 251.83 470.5 249.16 397.9"/><polygon points="249.16 397.9 249.16 385.46 386.12 385.46 338.79 451.53 246.49 470.5 249.16 397.9"/><path d="M248.79,131.2s1.33,18.22,9.77,35.55S280.79,199.2,295.9,225s28.74,60.15,27.41,80.59a134.19,134.19,0,0,1-13.93,50.07C303.83,366.31,287,390.31,287,390.31H264.34s18.22-15.56,30.22-50.22,8.3-57.41.3-79.34c-7-19.24-23.31-49.56-31.41-61.85-8.59-13-14.66-31.7-14.66-31.7Z" transform="translate(0.37 -0.11)"/><path d="M248.79,242.42s1.77,17.22,4.44,26.11,23.85,46.22,20.59,78.67-25,43.11-25,43.11Z" transform="translate(0.37 -0.11)"/><polyline points="244.61 469.53 241.94 396.94 241.94 384.5"/><polygon class="cls-2" points="251.83 403.51 145.79 403.51 156.46 417.78 251.83 417.78 347.2 417.78 357.86 403.51 251.83 403.51"/></svg>