<svg id="Layer_1" data-name="Layer 1" xmlns="http://www.w3.org/2000/svg" viewBox="0 0 500 500"><defs><style>.cls-1{fill:#7e57c2;}.cls-2{fill:#b388ff;}</style></defs><title>electrify_natgas</title><path class="cls-1" d="M251,480A230,230,0,0,1,88.37,87.37,230,230,0,1,1,413.63,412.63,228.44,228.44,0,0,1,251,480Z" transform="translate(-1 0)"/><path d="M251,40A210,210,0,0,1,399.49,398.49a210,210,0,1,1-297-297A208.59,208.59,0,0,1,251,40m0-40C112.93,0,1,111.93,1,250S112.93,500,251,500,501,388.07,501,250,389.07,0,251,0Z" transform="translate(-1 0)"/><path class="cls-2" d="M249.42,95.13l-37.94,72-37.3,46.22L148.6,265.79,142,306.68s8.43,37.33,10.21,40.89,24.56,48.52,24.56,48.52l46.62,21.7s58.76-1.78,62.68,0,30.18-21.7,30.18-21.7l22.63-29.63,16-35.78V304L349,260.75,330.9,222.22l-18.09-26.65-17.47-28.44-17.69-12.45-16.17-29.33Z" transform="translate(-1 0)"/><path d="M251.79,67.87a131.22,131.22,0,0,1-15.11,45.77c-12.89,23.11-29.78,42.23-53.34,74.67s-61.07,78.23-59.55,119.11c1.33,35.85,15.85,60.15,25.71,70.82,11.53,12.47,30.29,23.85,30.29,23.85L249,402s-58.1-15-75-47.91-12.45-60-3.56-87.11,26-55.78,49.08-87.34a222.85,222.85,0,0,0,32.26-65.11Z" transform="translate(-1 0)"/><path d="M251.79,67.87a131,131,0,0,0,15.11,45.77c12.89,23.11,29.78,42.23,53.33,74.67s61.08,78.23,59.56,119.11c-1.34,35.85-15.86,60.15-25.72,70.82-11.52,12.47-30.28,23.85-30.28,23.85L251,402s61.68-15,78.56-47.91,12.45-60,3.56-87.11-26-55.78-49.08-87.34a222.66,222.66,0,0,1-32.25-65.11Z" transform="translate(-1 0)"/><path d="M252,228s-9.8,25.7-16,35c-6,9-16,19-26,33-11.17,15.64-19,33-19,50,0,12.37,6.85,24.57,11,31s21.21,19.31,21.21,19.31L252,397V373c-9,0-18.41-1.41-25-8-9-9-10.41-21.48-5-35,6-15,16.08-28.79,21-37a99.18,99.18,0,0,0,9-20Z" transform="translate(-1 0)"/><path d="M252,228s9.8,25.7,16,35c6,9,16,19,26,33,11.17,15.64,19,33,19,50,0,12.37-6.85,24.57-11,31s-21.21,19.31-21.21,19.31L252,397V373c9,0,18.41-1.41,25-8,9-9,10.41-21.48,5-35-6-15-16.08-28.79-21-37a99.18,99.18,0,0,1-9-20Z" transform="translate(-1 0)"/><polygon points="250.79 404.01 250.79 391.57 89 392 161.16 457.64 253.45 476.61 250.79 404.01"/><polygon points="250.79 404.01 250.79 391.57 412.57 392 340.42 457.64 248.12 476.61 250.79 404.01"/><polygon points="173 362 61 362 28 304 165 340 173 362"/><polygon points="160 306 24 235 37 156 165 274 160 306"/><polygon points="180 236 81 95 118 54 193 214 180 236"/><polygon points="329 362 441 362 474 304 337 340 329 362"/><polygon points="342 306 478 235 465 156 337 274 342 306"/><polygon points="322 236 421 95 384 54 309 214 322 236"/><path d="M250,333" transform="translate(-1 0)"/><polygon class="cls-2" points="250.45 403.63 144.42 403.63 155.09 417.89 250.45 417.89 345.82 417.89 356.49 403.63 250.45 403.63"/></svg>