<svg id="Layer_1" data-name="Layer 1" xmlns="http://www.w3.org/2000/svg" viewBox="0 0 500 500.96"><defs><style>.cls-1{fill:#607d8b;}.cls-2{fill:#fff;}</style></defs><title>electrify_nuclear</title><circle class="cls-1" cx="250" cy="250" r="250"/><polygon class="cls-2" points="467 154.33 402.26 80.11 301.92 80.11 298.11 99.67 250 99.67 201.89 99.67 198.08 80.11 97.74 80.11 33 154.33 24.56 277.44 146.16 277.44 161.44 264.11 190.78 264.11 166.78 172.11 250 172.11 333.22 172.11 309.22 264.11 338.56 264.11 353.84 277.44 475.44 277.44 467 154.33"/><path class="cls-2" d="M247.46,481.51c-30.21-3.59-104.25-17.23-137.1-42.76,3.4-5.71,7.36-12.11,11.68-19.09,24-38.85,56.93-92.06,64.94-140.12,5.36-32.23-3.48-69-26.32-109.58h3.46c33.07,0,82.84.54,83.34.55h.33c.5,0,50.28-.55,83.35-.55h3.45c-22.83,40.56-31.68,77.35-26.31,109.58,9.7,58.29,49,125.68,76.22,161.76-8.1,6.38-26.69,16.48-69,27C284.59,476,254.92,480.45,247.46,481.51Z" transform="translate(0.37 0.37)"/><path d="M310.1,185c-15.94,35-21.53,67.5-16.62,97,9,54.15,42.23,115.53,69.33,154.82-10.19,4.87-27.08,11.2-54.59,17.85-26.6,6.43-51.68,10.36-60.84,11.7a538.9,538.9,0,0,1-57.24-10.85c-29.16-7.29-47.71-15-59.37-21.45l4-6.52c24.69-39.91,58.5-94.57,67-145.55,4.91-29.48-.68-62-16.61-97,29.69.13,61.74.48,62.14.49H248c.4,0,32.45-.36,62.15-.49m21-30.06c-33.54,0-83.51.55-83.51.55s-50-.55-83.51-.55c-16.78,0-29.43.14-29.69.55-.75,1.23,47.57,62.62,37.75,121.56S110.63,406.52,91.4,441.61c37.45,41.8,156.23,55,156.23,55s137.89-18.14,156.22-55c-27.45-33.06-71-105.6-80.78-164.54s38.5-120.33,37.75-121.56c-.25-.41-12.92-.55-29.68-.55Z" transform="translate(0.37 0.37)"/><path d="M232,177.74V140s.89-7.55-3.56-10.89a24.76,24.76,0,0,0-9.33-4.22H167.29s-13.11-.44-12.89,6.22,13.34,6.23,13.34,6.23l47.11,1.11s-15.11,8.44-40,7.55-36-1.55-40-4.89-2.84-6.42-2.84-6.42l-24.27,0s-3.78-.22-8-4.89-2.67-9.33-2.67-9.33H78.4l6.67-10.67h17.11A30.5,30.5,0,0,1,113.52,100c7.55-3.78,22.88-4.89,23.11-4.44s53.11-.09,53.11-.09,8,.61,8-6.43c0-5.85-6.42-6.45-6.42-6.45l-76.11-.25,13-9.23h61.34s17.35.3,17.77,12c.3,8.15-3.11,10.67-3.11,10.67l45.45-.44v9.55H135.29S116.85,107.52,116,115.3s8.89,7.55,8.89,7.55h7.78s.89-4.22,8.22-7.11a48.42,48.42,0,0,1,15.55-2.89h93.23v64.89Z" transform="translate(0.37 0.37)"/><path d="M249.63,65.52s-101.45,2.22-103.67,0S164,55.07,164,55.07h85.61Z" transform="translate(0.37 0.37)"/><path d="M60.48,147.15H102.7s14.07.15,17.33,8.59-4,17.78-4,17.78h35.56L158,183.89H83.29s-7.4.15-7.55,7.55c-.16,7.88,8,7.11,8,7.11H130.4s15,.15,14.72,12.28c-.3,15-14.72,13.21-14.72,13.21H36.77V214.7h71.12s10.66.15,10.51-3.55-11.26-4.3-11.26-4.3H74s-17.14-.29-17-14.37c.15-19.7,26.22-18.81,26.22-18.81H103s6.07-3.41,5.77-9.93-4.54-8.61-8.29-8.44c-4.88.21-43.41,0-43.41,0Z" transform="translate(0.37 0.37)"/><path d="M60.85,245.52h72.44s15,.45,15.34,10.44c.59,15.34-21.56,14.45-21.56,14.45H35.52v11.33H145.07s38.45,0,38.45-21.11c0-24-51.12-23.11-51.12-23.11s-26.53-.05-35,.88A248.21,248.21,0,0,0,60.85,245.52Z" transform="translate(0.37 0.37)"/><polygon points="38.56 298.11 182.33 298.11 182.33 307.89 37.15 307.89 38.56 298.11"/><polygon points="44.78 322.78 173.67 322.78 171.22 340.78 46.56 340.78 44.78 322.78"/><polygon points="62.56 359.89 157.89 359.89 139.22 393.89 80.11 393.89 62.56 359.89"/><path d="M267.29,177.74V140s-.89-7.55,3.56-10.89a24.76,24.76,0,0,1,9.33-4.22H332s13.11-.44,12.89,6.22-13.33,6.23-13.33,6.23l-47.12,1.11s15.12,8.44,40,7.55,36-1.55,40-4.89,2.84-6.42,2.84-6.42l24.28,0s3.77-.22,8-4.89,2.66-9.33,2.66-9.33h18.67l-6.67-10.67H397.07A30.52,30.52,0,0,0,385.74,100c-7.56-3.78-22.89-4.89-23.11-4.44s-53.11-.09-53.11-.09-8,.61-8-6.43c0-5.85,6.42-6.45,6.42-6.45l76.11-.25-13-9.23H309.74s-17.35.3-17.78,12c-.3,8.15,3.11,10.67,3.11,10.67l-45.44-.44v9.55H364s18.44,2.67,19.33,10.45-8.89,7.55-8.89,7.55h-7.77s-.89-4.22-8.23-7.11a48.42,48.42,0,0,0-15.55-2.89H249.63v64.89Z" transform="translate(0.37 0.37)"/><path d="M249.63,65.52s101.44,2.22,103.66,0-18.05-10.45-18.05-10.45H249.63Z" transform="translate(0.37 0.37)"/><path d="M438.77,147.15H396.55s-14.07.15-17.33,8.59,4,17.78,4,17.78H347.66l-6.37,10.37H416s7.41.15,7.56,7.55c.15,7.88-8,7.11-8,7.11H368.85s-15,.15-14.72,12.28c.3,15,14.72,13.21,14.72,13.21h93.63V214.7H391.37s-10.67.15-10.52-3.55,11.26-4.3,11.26-4.3h33.18s17.15-.29,17-14.37c-.15-19.7-26.22-18.81-26.22-18.81H396.26s-6.08-3.41-5.78-9.93,4.55-8.61,8.29-8.44c4.89.21,43.41,0,43.41,0Z" transform="translate(0.37 0.37)"/><path d="M438.4,245.52H366S351,246,350.63,256c-.6,15.34,21.55,14.45,21.55,14.45h91.56v11.33H354.18s-38.44,0-38.44-21.11c0-24,51.11-23.11,51.11-23.11s26.54-.05,35,.88A248.25,248.25,0,0,1,438.4,245.52Z" transform="translate(0.37 0.37)"/><polygon points="461.44 298.11 317.67 298.11 317.67 307.89 462.85 307.89 461.44 298.11"/><polygon points="455.22 322.78 326.33 322.78 328.78 340.78 453.44 340.78 455.22 322.78"/><polygon points="437.44 359.89 342.11 359.89 360.78 393.89 419.89 393.89 437.44 359.89"/><path d="M247.29,348.85a11.56,11.56,0,1,0,11.56,11.56,11.55,11.55,0,0,0-11.56-11.56Z" transform="translate(0.37 0.37)"/><path d="M247.29,297.74a73.32,73.32,0,0,0-25.77,5l16.29,36.44h19l16.3-36.44A73.34,73.34,0,0,0,247.29,297.74Z" transform="translate(0.37 0.37)"/><path d="M193,391.74a73.68,73.68,0,0,0,17.25,19.81l23.42-32.34L229,371l-4.74-8.21L184.5,366.9A73.39,73.39,0,0,0,193,391.74Z" transform="translate(0.37 0.37)"/><path d="M301.56,391.74a73.29,73.29,0,0,0,8.53-24.84l-39.71-4.11L265.64,371l-4.74,8.21,23.41,32.34A73.49,73.49,0,0,0,301.56,391.74Z" transform="translate(0.37 0.37)"/><path d="M249.63,40.59A210,210,0,0,1,398.12,399.08a210,210,0,0,1-297-297,208.66,208.66,0,0,1,148.5-61.51m0-40c-138.07,0-250,111.93-250,250s111.93,250,250,250,250-111.93,250-250S387.7.59,249.63.59Z" transform="translate(0.37 0.37)"/></svg>