<svg id="Layer_1" data-name="Layer 1" xmlns="http://www.w3.org/2000/svg" viewBox="0 0 500 500"><defs><style>.cls-1{fill:#bdbdbd;}.cls-2,.cls-3{fill:#616161;}.cls-3{stroke:#000;stroke-miterlimit:10;stroke-width:20px;}</style></defs><title>electrify_oil</title><path class="cls-1" d="M249.63,480.11A230,230,0,0,1,87,87.48,230,230,0,1,1,412.26,412.74,228.46,228.46,0,0,1,249.63,480.11Z" transform="translate(0.37 -0.11)"/><path d="M249.63,40.11A210,210,0,0,1,398.12,398.6a210,210,0,0,1-297-297,208.62,208.62,0,0,1,148.5-61.51m0-40C111.56.11-.37,112-.37,250.11s111.93,250,250,250,250-111.93,250-250S387.7.11,249.63.11Z" transform="translate(0.37 -0.11)"/><rect x="98.1" y="72.08" width="303.12" height="27.98"/><path d="M390.86,82.19v8H107.73v-8H390.86m20-20H87.73v48H410.86v-48Z" transform="translate(0.37 -0.11)"/><polygon points="249.92 146.34 249.41 146.34 28.52 146.34 28.52 168.56 249.41 168.56 249.92 168.56 470.81 168.56 470.81 146.34 249.92 146.34"/><polygon points="470.81 146.34 249.92 146.34 249.41 146.34 28.52 146.34 28.52 168.56 249.41 168.56 249.92 168.56 470.81 168.56 470.81 146.34 470.81 146.34"/><polygon points="249.67 191.97 32.56 191.97 32.56 206.19 249.67 206.19 466.78 206.19 466.78 191.97 249.67 191.97"/><polygon points="466.78 191.97 249.67 191.97 32.56 191.97 32.56 206.19 249.67 206.19 466.78 206.19 466.78 191.97 466.78 191.97"/><rect x="98.1" y="399.93" width="303.12" height="27.98"/><path d="M390.86,410v8H107.73v-8H390.86m20-20H87.73v48H410.86V390Z" transform="translate(0.37 -0.11)"/><polygon points="249.92 353.66 249.41 353.66 28.52 353.66 28.52 331.44 249.41 331.44 249.92 331.44 470.81 331.44 470.81 353.66 249.92 353.66"/><polygon points="470.81 331.44 249.92 331.44 249.41 331.44 28.52 331.44 28.52 353.66 249.41 353.66 249.92 353.66 470.81 353.66 470.81 331.44 470.81 331.44"/><polygon points="249.67 308.04 32.56 308.04 32.56 293.81 249.67 293.81 466.78 293.81 466.78 308.04 249.67 308.04"/><polygon points="466.78 293.81 249.67 293.81 32.56 293.81 32.56 308.04 249.67 308.04 466.78 308.04 466.78 293.81 466.78 293.81"/><path class="cls-2" d="M249.63,405.57c-32.06,0-62-4.72-84.45-13.29-18.53-7.09-30-16.42-30-24.34V136.4h229V367.94c0,7.92-11.51,17.25-30,24.34C311.68,400.85,281.69,405.57,249.63,405.57Z" transform="translate(0.37 -0.11)"/><path d="M354.11,146.4V367.77c-.63,1.82-6.74,9.38-27.42,16.56-20.88,7.24-48.25,11.24-77.06,11.24s-56.19-4-77.06-11.24c-20.68-7.18-26.8-14.74-27.43-16.56V146.4h209m20-20h-249V367.94c0,26.3,55.74,47.63,124.49,47.63s124.48-21.33,124.48-47.63V126.4Z" transform="translate(0.37 -0.11)"/><path class="cls-3" d="M363.29,167.33c0,22-51,39.85-114,39.85s-114-17.84-114-39.85" transform="translate(0.37 -0.11)"/><path class="cls-3" d="M363.55,322.06c0,22-51,39.85-114,39.85s-114-17.84-114-39.85" transform="translate(0.37 -0.11)"/><path class="cls-2" d="M249.63,164c-32.06,0-62-4.72-84.45-13.29-18.53-7.08-30-16.41-30-24.33s11.5-17.25,30-24.34c22.4-8.57,52.39-13.29,84.45-13.29s62.05,4.72,84.45,13.29c18.52,7.09,30,16.41,30,24.34s-11.51,17.25-30,24.33C311.68,159.3,281.69,164,249.63,164Z" transform="translate(0.37 -0.11)"/><path d="M249.63,98.77c28.81,0,56.18,4,77.06,11.24,20.07,7,26.42,14.29,27.35,16.39-.93,2.09-7.28,9.42-27.35,16.38C305.81,150,278.44,154,249.63,154s-56.19-4-77.06-11.24c-20.08-7-26.43-14.29-27.36-16.38.93-2.1,7.28-9.42,27.36-16.39,20.87-7.24,48.24-11.24,77.06-11.24m0-20c-68.75,0-124.49,21.33-124.49,47.63S180.88,174,249.63,174,374.11,152.7,374.11,126.4,318.38,78.77,249.63,78.77Z" transform="translate(0.37 -0.11)"/><path d="M249.29,312.06c-7,0-12.44-2.06-16.28-6.13a21.82,21.82,0,0,1-5.51-16.26c.36-6.57,10.5-25.43,21.79-43.19,11.3,17.76,21.43,36.63,21.8,43.19a21.87,21.87,0,0,1-5.51,16.26C261.73,310,256.25,312.06,249.29,312.06Z" transform="translate(0.37 -0.11)"/><path d="M249.29,265.74c10.19,17.51,11.65,23.81,11.82,24.7a12,12,0,0,1-2.8,8.62c-1.88,2-4.91,3-9,3s-7.14-1-9-3a12,12,0,0,1-2.8-8.62c.17-.89,1.64-7.18,11.82-24.7m0-37.37s-30.89,44.74-31.77,60.74,9.33,32.95,31.77,32.95,32.67-16.95,31.78-32.95-31.78-60.74-31.78-60.74Z" transform="translate(0.37 -0.11)"/></svg>