<svg id="Layer_1" data-name="Layer 1" xmlns="http://www.w3.org/2000/svg" viewBox="0 0 500 500"><defs><style>.cls-1{fill:#29abe2;}.cls-2{fill:aqua;}</style></defs><title>electrify_reservoir</title><rect x="92.85" y="93.33" width="313.55" height="313.55" transform="translate(-103.37 249.66) rotate(-45)"/><path d="M249.63,56.68,443.06,250.11,249.63,443.54,56.2,250.11,249.63,56.68m0-56.57-250,250,250,250,250-250-250-250Z" transform="translate(0.37 -0.11)"/><path class="cls-1" d="M68.48,243.63s14.66,5.18,23.7,1.78A44.93,44.93,0,0,0,107.59,235a24.75,24.75,0,0,0,15.26,10.79,57,57,0,0,0,27-1.36s-16.43-3.95-27.69-12.25c-10.83-8-13.63-16.3-13.63-16.3s-7.15,9.58-15.11,15.33C83.29,238.51,68.48,243.63,68.48,243.63Z" transform="translate(0.37 -0.11)"/><path class="cls-1" d="M103.29,194.67l11.34-11.12s5.55,10,15.55,14.23,23.34,6.44,23.34,6.44-15.56,4.89-27.12,2S103.29,194.67,103.29,194.67Z" transform="translate(0.37 -0.11)"/><path class="cls-1" d="M149.8,190.22s14.6-6.22,22.38-13.78a125.6,125.6,0,0,0,14.67-18s5.55,10.45,12.89,15.89,18.44,9.22,18.44,9.22L204.4,192s-8-3.56-11.55-6.45S184,175.22,184,175.22s-2.25,6.11-10,10.56S149.8,190.22,149.8,190.22Z" transform="translate(0.37 -0.11)"/><path class="cls-1" d="M430.77,243.63s-14.66,5.18-23.7,1.78A44.93,44.93,0,0,1,391.66,235a24.71,24.71,0,0,1-15.26,10.79,57,57,0,0,1-26.95-1.36s16.44-3.95,27.69-12.25c10.83-8,13.63-16.3,13.63-16.3s7.15,9.58,15.12,15.33C416,238.51,430.77,243.63,430.77,243.63Z" transform="translate(0.37 -0.11)"/><path class="cls-1" d="M396,194.67l-11.33-11.12s-5.56,10-15.56,14.23-23.33,6.44-23.33,6.44,15.55,4.89,27.11,2S396,194.67,396,194.67Z" transform="translate(0.37 -0.11)"/><path class="cls-1" d="M349.45,190.22s-14.6-6.22-22.38-13.78a125.6,125.6,0,0,1-14.67-18s-5.55,10.45-12.88,15.89-18.45,9.22-18.45,9.22L294.85,192s8-3.56,11.55-6.45,8.86-10.33,8.86-10.33,2.26,6.11,10,10.56S349.45,190.22,349.45,190.22Z" transform="translate(0.37 -0.11)"/><path class="cls-1" d="M332.18,213.55c-13.33-7.55-16.92-14.22-16.92-14.22s-9.74,8.45-21.52,6.67a44.27,44.27,0,0,1-26.45-14c-6.22-6.67-17.66-26.45-17.66-26.45S238.18,185.33,232,192a44.25,44.25,0,0,1-26.44,14c-11.78,1.78-21.53-6.67-21.53-6.67s-3.59,6.67-16.92,14.22-32,6.45-32,6.45,16,5.55,26.45,4.67S184,213.33,184,213.33a32.77,32.77,0,0,0,9.3,6.73c6.23,3.16,24.67,2.16,36.89-1.84s19.45-18,19.45-18,7.22,14,19.44,18,30.67,5,36.89,1.84a32.77,32.77,0,0,0,9.3-6.73s12,10.45,22.48,11.34S364.18,220,364.18,220,345.52,221.11,332.18,213.55Z" transform="translate(0.37 -0.11)"/><polygon class="cls-2" points="250 132.78 158.33 132.78 158.33 143.67 250 143.67 341.67 143.67 341.67 132.78 250 132.78"/><polygon class="cls-2" points="250 101.22 187 101.22 187 116.33 250 116.33 313 116.33 313 101.22 250 101.22"/><polygon class="cls-2" points="250 52.33 223.22 77.67 250 77.67 276.78 77.67 250 52.33"/><path class="cls-2" d="M325.07,250.11C287.66,231.48,249.63,233,249.63,233s-38-1.48-75.45,17.15c-54.4,27.1-69.11,59-69.11,59L117,321.38s25.86-35.54,63.08-54.94C219.22,246,249.63,249,249.63,249S280,246,319.22,266.44c37.22,19.4,63.08,54.94,63.08,54.94l11.88-12.27S379.48,277.21,325.07,250.11Z" transform="translate(0.37 -0.11)"/><path class="cls-2" d="M142.4,353.78c.23-.67,1.25-19.34,7.4-30.67a74.55,74.55,0,0,1,13.49-18s8.45,34.44,20.89,57.11,39.34,62.22,39.34,62.22Z" transform="translate(0.37 -0.11)"/><path class="cls-2" d="M188.18,330.67a169.93,169.93,0,0,1-5.22-20c-1.67-9.34-2.56-18.89-2.56-18.89s13.78-10.36,25.34-14.62a77,77,0,0,1,20.66-4.72l2.45,29.11-8.22-8-1.78-8.44s-9.56,2.44-14.22,4.44-15.34,8.67-15.34,8.67Z" transform="translate(0.37 -0.11)"/><path class="cls-2" d="M349.45,323.11a74.55,74.55,0,0,0-13.49-18s-8.44,34.44-20.89,57.11-39.33,62.22-39.33,62.22l81.11-70.66C356.63,353.11,355.6,334.44,349.45,323.11Z" transform="translate(0.37 -0.11)"/><path class="cls-2" d="M280.4,285.11a133.79,133.79,0,0,1,14.23,4.44c4.66,2,15.33,8.67,15.33,8.67l1.11,32.45a167.75,167.75,0,0,0,5.22-20c1.67-9.34,2.56-18.89,2.56-18.89s-13.78-10.36-25.33-14.62a77.09,77.09,0,0,0-20.67-4.72l-2.45,29.11,8.23-8Z" transform="translate(0.37 -0.11)"/><path class="cls-1" d="M282.4,358.22c-.88,8.89-2.22,36.89-2.22,36.89l7.11-11.33s.67-22.23,3.56-37.56,9.55-30.44,9.55-30.44l-8-3.78S277.74,334.44,274,345.55s-9.33,29.78-9.33,29.78.44-23.33,4.44-35.11S280.18,310,280.18,310,264,337.11,258.85,350.22s-9.22,31.33-9.22,31.33-4.11-18.22-9.23-31.33S219.07,310,219.07,310s7.11,18.44,11.11,30.22,4.45,35.11,4.45,35.11-5.56-18.66-9.34-29.78S206.85,312,206.85,312l-8,3.78s6.67,15.11,9.55,30.44S212,383.78,212,383.78l7.11,11.33s-1.33-28-2.22-36.89-6.67-31.55-6.67-31.55S228.63,368,232,382.89s4.44,52.44,4.44,52.44l7.78,8.22s-1.55-28.66-1.78-36.22S238,370.22,238,370.22s4.22,5.33,7.33,16.22,4.34,39.34,4.34,39.34,1.22-28.45,4.33-39.34,7.33-16.22,7.33-16.22-4.22,29.56-4.44,37.11-1.78,36.22-1.78,36.22l7.78-8.22s1.11-37.55,4.44-52.44,21.78-56.22,21.78-56.22S283.29,349.33,282.4,358.22Z" transform="translate(0.37 -0.11)"/><path d="M249.63,56.68,443.06,250.11,249.63,443.54,56.2,250.11,249.63,56.68m0-56.57-250,250,250,250,250-250-250-250Z" transform="translate(0.37 -0.11)"/></svg>