<svg id="Layer_1" data-name="Layer 1" xmlns="http://www.w3.org/2000/svg" viewBox="0 0 501.11 500"><defs><style>.cls-1{fill:#ffc107;}.cls-2,.cls-3{fill:#ff0;}.cls-3{stroke:#000;stroke-miterlimit:10;stroke-width:15px;}</style></defs><title>electrify_solar</title><circle class="cls-1" cx="251.11" cy="250" r="250"/><polygon class="cls-2" points="60.22 363.33 442 363.33 409.07 423.06 337.28 466.33 150.15 466.33 81.96 409.85 60.22 363.33"/><polygon points="41.91 349 460.31 349 455.19 377.67 41.91 377.67 41.91 349"/><polygon points="74.54 396.65 423.3 396.65 419.03 423.06 74.54 423.06 74.54 396.65"/><polygon points="150.15 442.04 349.85 442.04 347.41 479.81 150.15 479.81 150.15 442.04"/><polygon points="77 362.33 78 285.78 60.22 268 60.22 245.33 135.33 320.44 113.11 320.44 93.11 300.44 93.11 362.33 77 362.33"/><polygon points="166.93 362.33 167.93 285.78 150.15 268 150.15 245.33 225.26 320.44 203.04 320.44 183.04 300.44 183.04 362.33 166.93 362.33"/><polygon points="425.22 362.33 424.22 285.78 442 268 442 245.33 366.89 320.44 389.11 320.44 409.11 300.44 409.11 362.33 425.22 362.33"/><polygon points="335.3 362.33 334.3 285.78 352.07 268 352.07 245.33 276.96 320.44 299.19 320.44 319.19 300.44 319.19 362.33 335.3 362.33"/><circle class="cls-3" cx="248.92" cy="129.44" r="48.89"/><polygon class="cls-2" points="113.98 129.67 192.53 111.34 192.53 149.19 113.98 129.67"/><path d="M184.1,120.9v18.8l-39-9.69,39-9.11m15-18.9L81,129.55,199.1,158.89V102Z" transform="translate(0.93 -0.11)"/><polygon class="cls-2" points="194.73 151.69 217.31 175.54 134.24 230.84 194.73 151.69"/><path d="M194.41,163.35l10.4,11-38.27,25.47,27.87-36.47m-1.22-23.11-93.1,121.84L228,177l-34.76-36.73Z" transform="translate(0.93 -0.11)"/><polygon class="cls-2" points="216.67 180.39 246.37 189.53 214.89 259.68 216.67 180.39"/><path d="M223,190.58l12.11,3.73-12.83,28.6.72-32.33m-14.55-20.17-2.83,126.26L255.76,185l-47.3-14.55Z" transform="translate(0.93 -0.11)"/><polygon class="cls-2" points="251.47 189.53 281.17 180.39 282.95 259.68 251.47 189.53"/><path d="M273,190.58l.72,32.33-12.83-28.6L273,190.58m14.55-20.17L240.22,185l50.13,111.71-2.83-126.26Z" transform="translate(0.93 -0.11)"/><polygon class="cls-2" points="173.47 63.71 217.76 83.9 193 108.72 173.47 63.71"/><path d="M187.19,78.74l16.7,7.62-9.33,9.36-7.37-17M157.89,48.9,189.59,122l40.17-40.28L157.89,48.9Z" transform="translate(0.93 -0.11)"/><polygon class="cls-2" points="309.69 111.34 388.24 129.67 309.69 149.19 309.69 111.34"/><path d="M316.26,120.9l39,9.11-39,9.69V120.9m-15-18.9v56.89l118.07-29.34L301.26,102Z" transform="translate(0.93 -0.11)"/><polygon class="cls-2" points="284.92 175.54 307.49 151.69 367.98 230.84 284.92 175.54"/><path d="M306,163.35l27.87,36.47-38.27-25.47,10.4-11m1.22-23.11L272.42,177l127.86,85.11L307.17,140.24Z" transform="translate(0.93 -0.11)"/><polygon class="cls-2" points="284.46 83.9 328.75 63.71 309.22 108.72 284.46 83.9"/><path d="M313.17,78.74l-7.36,17-9.34-9.36,16.7-7.62M342.48,48.9,270.6,81.67,310.78,122l31.7-73.05Z" transform="translate(0.93 -0.11)"/><polygon class="cls-2" points="228.3 77.81 249.4 42.94 269.22 77.81 228.3 77.81"/><path d="M248.27,57.87l7.14,12.55H240.68l7.59-12.55m.41-29.65-34.61,57.2h67.11l-32.5-57.2Z" transform="translate(0.93 -0.11)"/><path d="M249.07,40.11A210,210,0,0,1,397.56,398.6a210,210,0,1,1-297-297A208.59,208.59,0,0,1,249.07,40.11m0-40C111,.11-.93,112-.93,250.11s111.93,250,250,250,250-111.93,250-250S387.14.11,249.07.11Z" transform="translate(0.93 -0.11)"/></svg>