<svg id="Layer_1" data-name="Layer 1" xmlns="http://www.w3.org/2000/svg" viewBox="0 0 500 500"><defs><style>.cls-1{fill:#3949ab;}.cls-2{fill:#448aff;}</style></defs><title>electrify_tidal</title><path class="cls-1" d="M249.63,480.11A230,230,0,0,1,87,87.48,230,230,0,1,1,412.26,412.74,228.46,228.46,0,0,1,249.63,480.11Z" transform="translate(0.37 -0.11)"/><path d="M249.63,40.11A210,210,0,0,1,398.12,398.6a210,210,0,0,1-297-297,208.62,208.62,0,0,1,148.5-61.51m0-40C111.56.11-.37,112-.37,250.11s111.93,250,250,250,250-111.93,250-250S387.7.11,249.63.11Z" transform="translate(0.37 -0.11)"/><path class="cls-2" d="M45.07,351.33s60.45,11.56,88,0S262,242.59,270.85,210.3s-10.9-115-10.9-115l122,32.89,71.11,60S482.4,250,479.74,278.44s-39.11,133.34-72,148.45-111.11,53.33-136,53.33-152.89-32-160.45-44.44S45.07,351.33,45.07,351.33Z" transform="translate(0.37 -0.11)"/><path d="M51.46,340.39c1.78,0,41.76,7.46,71.71-4.74,32-13,62.22-39.11,84.15-73.48s27.79-66.67,17.77-82.37c-5.72-9-20.29-21.48-33.77-22.52-16.85-1.3-28.89,12.37-30.23,21.33s2.89,22.6,17.78,20.74a15.36,15.36,0,0,0,13.78-15.55c-.15-4.6-6.07-10.52-6.07-10.52s24.29,4.44,24.29,26.66c0,14.24-11.85,41.12-29,46.34s-45,3.44-58.66-9-29.6-68.65.59-101.93c44.82-49.41,97.78-72.29,187.85-52.74s168.3,105.48,168.3,107.26-32.45,164.07-32.45,164.07,25.12-82.22,3.41-135.62c-16.15-39.75-50.37-58.67-50.37-58.67s29,36.74,27.26,96.59c-2,70.35-36.15,170.67-36.15,170.67L253,467.8s59.19-16.6,100.67-76.45,40.89-102.52,40.89-102.52S383.74,333.26,341.66,370s-89.31,64-117.75,74.69-65.19,16-65.19,16l-39.11-35.56s35,19,84.74,6.52S325.24,357,342.43,328.54s35.42-92.2,22.52-131c-18.6-55.85-83-76.44-83-76.44s53,33.26,58.67,81.48c5.67,48.59-4.32,109.31-45.21,142.5s-99.38,64-129,65.8S90,405.57,90,405.57L65.69,367.65s25.56,31.66,78.22,28.44c53.75-3.28,120.42-50.39,142.35-84.17S310,239,307,218.89s-17.31-43.24-17.31-43.24.59,48.59-17.19,77.63-46.22,61-73.48,76.44S152.92,357,111.46,363.5c-16,2.52-52.29-4.15-52.29-4.15Z" transform="translate(0.37 -0.11)"/><path class="cls-2" d="M185.09,218s-14.15,8.08-28.15-.59-17.48-21.55-15.7-36,16.22-34.3,39.11-39,40.48,1.77,50.9,10.37c18.13,15,26.73,38.52,26.73,38.52s3.55-37.78-18.45-54.23-44.52-19.25-66-11.55c-20.67,7.41-42.44,26.94-48,46.47s-4.44,37.31,7.11,49.31,27,13.58,33.34,11.77C182.72,228.37,185.09,218,185.09,218Z" transform="translate(0.37 -0.11)"/><path d="M249.63,40.11A210,210,0,0,1,398.12,398.6a210,210,0,0,1-297-297,208.62,208.62,0,0,1,148.5-61.51m0-40C111.56.11-.37,112-.37,250.11s111.93,250,250,250,250-111.93,250-250S387.7.11,249.63.11Z" transform="translate(0.37 -0.11)"/></svg>