<svg id="Layer_1" data-name="Layer 1" xmlns="http://www.w3.org/2000/svg" viewBox="0 0 500 500"><defs><style>.cls-1{fill:#ff4081;}.cls-2{fill:#ff80ab;}</style></defs><title>electrify_incinerator</title><path d="M249.63,480.11A230,230,0,0,1,87,87.48,230,230,0,1,1,412.26,412.74,228.46,228.46,0,0,1,249.63,480.11Z" transform="translate(0.37 -0.11)"/><path d="M249.63,40.11A210,210,0,0,1,398.12,398.6a210,210,0,0,1-297-297,208.62,208.62,0,0,1,148.5-61.51m0-40C111.56.11-.37,112-.37,250.11s111.93,250,250,250,250-111.93,250-250S387.7.11,249.63.11Z" transform="translate(0.37 -0.11)"/><polygon class="cls-1" points="117.44 421.22 158.33 385 190.67 429.46 169.89 449.22 138.56 437.67 117.44 421.22"/><polygon class="cls-1" points="199.12 411.67 223.22 398.33 238.32 414.59 206.97 415.96 199.12 411.67"/><path class="cls-1" d="M185.14,459.55l31.34-30.44,66.22-8.89,18.56,35.38s-27.34,10.62-46.56,11.07S185.14,459.55,185.14,459.55Z" transform="translate(0.37 -0.11)"/><polygon class="cls-1" points="302.63 426.33 317.96 452.56 383.56 418.62 341.74 385 302.63 426.33"/><polygon class="cls-1" points="297.3 415.67 307.52 404.56 287.96 388.56 270.63 409.22 292.41 409.22 297.3 415.67"/><path class="cls-2" d="M190.3,396.67l37.14-21.34s28.41,33.48,29.63,31.93,29-41.41,29-41.41L318,394l25.93-32.89L380.33,394s25.19-25.33,22.07-68.45-57.33-81.33-57.33-81.33,6.71,9.87,10.22,30.22c3.71,21.48-.89,37.34-.89,37.34s-3.11-27.11-14.22-48-17.78-24.89-17.78-24.89,3.86,10.07.45,28.89a143.85,143.85,0,0,1-13.33,38.66s3.59-27.9,2.66-44.89c-.89-16.29-5.33-24.88-5.33-24.88S295,248.52,282,268.37c-10,15.16-18.67,43-18.67,43s-1.7-16.36,9.34-44.44c8.14-20.74,15.55-28,15.55-28S258,255.92,234,290.3c-10.8,15.46-25.78,58.37-25.78,58.37s-.29-32.15,8.59-51.26,28.75-37.63,28.75-37.63-34.67,5-52.89,59.55C174.19,374.48,190.3,396.67,190.3,396.67Z" transform="translate(0.37 -0.11)"/><path class="cls-2" d="M168.4,304.89S153.07,320.22,147.52,342s-7.12,27.11-7.12,27.11-35.55-23.11-36-22-43.33,19.11-43.33,19.11L34.63,309.78A247.42,247.42,0,0,1,52,286.22C61.52,274.89,76.63,266,76.63,266a94.57,94.57,0,0,0-12,20.67c-4.45,11.11-4,24-4,24s5.11-16.45,12.89-27.56,24.22-21.78,24.22-21.78-10,22.67-12.67,37.78.22,37.78.22,37.78,3.11-27.56,11.78-50.45,24-33.33,24-33.33A37.74,37.74,0,0,1,132,277.33c1.11,15.56-.44,38-.44,38s11.77-19.55,11.11-36.44-7.34-27.78-7.34-27.78-9.11-6.22-19.11-6.89a184.53,184.53,0,0,0-20.66,0L94,210.89a36.89,36.89,0,0,1,9.33,13.33c2.89,7.78,4.89,14.67,4.89,14.67a51.74,51.74,0,0,1,8.89-13.11c6-6.45,20.45-4.89,20.45-4.89s-1.12,7.55-3.34,12.44a92.81,92.81,0,0,1-4.66,8.89s6.66,1.11,12.22-.44a67,67,0,0,0,11.94-5.11s.28,6.66-3.28,10.22a10.32,10.32,0,0,1-7.55,3.22s15.11,6.11,21.78,25S168.4,304.89,168.4,304.89Z" transform="translate(0.37 -0.11)"/><polygon class="cls-1" points="72.56 382.78 106.56 364.33 132.33 385 97.22 412.83 72.56 382.78"/><path class="cls-2" d="M261.29,185.78a66.25,66.25,0,0,0,4.89,24c5.11,12.22,15.11,22,15.11,22a94.57,94.57,0,0,1,28.23-11.56c15.55-3.33,30.44,2.45,30.44,2.45s10.89-8.89,14.89-17.56,4.67-30,4.67-30-6,8.44-12.23,13.56-16.44,7.77-16.44,7.77-1.78-7.77-5.33-12-14.23-13.11-14.23-13.11-.89,10.45-4.22,16.22-14.67,16.23-14.67,16.23-9.33-1.78-16.22-5.56S261.29,185.78,261.29,185.78Z" transform="translate(0.37 -0.11)"/><path class="cls-1" d="M408.11,267.63S422,284.74,426,297.41c6,18.86,5,71.7,5,71.7L465.07,285l-35-38.81Z" transform="translate(0.37 -0.11)"/><path class="cls-1" d="M49.74,230.22S42,206.67,68.33,181c14.86-14.48,33.19-12.44,44.15-24s21.63-34.07,21.63-34.07-2.67,16,3,29.63,16.3,31.4,35,32S212.92,167,212.92,167a43.82,43.82,0,0,0-7.11,22.22c-.59,13.33,12.15,31.11,12.15,31.11s-20,1.63-43.78-14.59a112.34,112.34,0,0,1-28.89-29.23s3.34,13.3,7.48,20.41,21.93,23.41,21.93,23.41-19.16-5.51-27.85-16.3c-15.11-18.74-13.93-43.85-13.93-43.85s-3.55,9.48-6.81,17.19-13.34,20.44-13.34,20.44,3.56-8.89,3.86-17.18a55,55,0,0,0-2.08-16,85.12,85.12,0,0,1-8.89,16.59c-5.63,8-28.14,26.07-28.14,26.07s8.81-7.92,12.66-17.11,1.56-12.44,1.56-12.44-5.44-.68-19,10.59C47.07,209.78,49.74,230.22,49.74,230.22Z" transform="translate(0.37 -0.11)"/><path class="cls-1" d="M59.74,165.55s10.66-21.33,27.55-37.77S120,104.67,120,104.67s-13.38,12.22-18.13,20.66-1.2,13.34-4.54,18S86,152.44,86,152.44A23.91,23.91,0,0,0,91.07,142a17.45,17.45,0,0,0-1.22-10.45S81.07,140,76.4,145.33,59.74,165.55,59.74,165.55Z" transform="translate(0.37 -0.11)"/><path class="cls-1" d="M154.85,104.22a79.46,79.46,0,0,0-2.22,28.45c1.77,14.88,24.22,35.11,24.22,35.11a79.89,79.89,0,0,1-12.45-19.56c-5.11-11.55-3.2-17.57-3.2-17.57s3.43,9.57,10.54,15.57S194.85,152,194.85,152s-11.6-1.1-24.22-17.78C163.38,124.65,154.85,104.22,154.85,104.22Z" transform="translate(0.37 -0.11)"/><path class="cls-1" d="M196.63,114.44s20.22,5.78,25.55,19.11c3.21,8,2.26,32.09,0,47.78-3.18,22.15,11.9,34.75,12.94,34.22,0,0-6.2-20.22,0-39,2.82-8.54,6-15.87,6.17-22.77.23-12.89-6.66-21.56-8.89-25.34s-8.66-8-8.66-8,8.44-.89,14.44,1.11,13.26,5,17.27,13.41c3,6.24,3.55,26.45,3.55,26.45s10.74-16.52,13-23.41,3.48-12.59,3.48-12.59-12.37-12.08-22.81-16.3-21.34-4.67-28.23-2.22S196.63,114.44,196.63,114.44Z" transform="translate(0.37 -0.11)"/><path class="cls-1" d="M244.4,56.67S255.29,68.22,256,77.55s-2.44,14.23-2.44,14.23,6.88.77,14,7.33c6.35,5.86,12.07,10.56,12.07,10.56a13.94,13.94,0,0,0,1.26-6.12,30.15,30.15,0,0,0-1.56-10.22s-5.55-18.44-13.11-25.55S244.4,56.67,244.4,56.67Z" transform="translate(0.37 -0.11)"/><path class="cls-1" d="M291.29,78.22s6.89,22,5.56,37.11-2.56,19.36-5.56,27.11c-2.8,7.23-17.68,25.34-17.68,25.34s13.91-7.11,20.13-13.11S305.52,143.78,308.4,138a51.32,51.32,0,0,0,4-13.11,51.16,51.16,0,0,0,9.34,9.78c6.22,5.11,21.11,4.66,35.78,9.55s32.22,23.56,32.22,23.56-2.89-13.72-7.56-19.75S358,129.11,358,129.11s16.67,2,26.44,9.11,13.56,8.45,22,16.67S426,185.11,426,185.11s-2.67-18.89-10.67-29.78-22-25.78-32.44-28.89-28.45-2.89-41.11-8-21.34-10.22-29.56-17.55S291.29,78.22,291.29,78.22Z" transform="translate(0.37 -0.11)"/><path class="cls-1" d="M313.29,73.11s13.56,7.56,19.34,15.56S342.85,108,342.85,108a77.34,77.34,0,0,0,15.55,2.22c8,.22,15.12-.22,20.67,2.22a23.37,23.37,0,0,1,8.89,7.34S382.18,104,372.63,96.22,354,92.67,345.07,87.55,313.29,73.11,313.29,73.11Z" transform="translate(0.37 -0.11)"/><path d="M249.63,40.11A210,210,0,0,1,398.12,398.6a210,210,0,0,1-297-297,208.62,208.62,0,0,1,148.5-61.51m0-40C111.56.11-.37,112-.37,250.11s111.93,250,250,250,250-111.93,250-250S387.7.11,249.63.11Z" transform="translate(0.37 -0.11)"/><path class="cls-1" d="M373.81,239.33c12.22,7.28,23.85,19.11,23.85,19.11l12.3-15s-16.59-24-16.59-24.89S373.81,239.33,373.81,239.33Z" transform="translate(0.37 -0.11)"/></svg>