<svg id="Layer_1" data-name="Layer 1" xmlns="http://www.w3.org/2000/svg" viewBox="0 0 500 500"><defs><style>.cls-1{fill:#009688;}.cls-2,.cls-3{fill:#64ffda;}.cls-3{stroke:#000;stroke-miterlimit:10;stroke-width:20px;}</style></defs><title>electrify_wind</title><path class="cls-1" d="M249.63,480.11A230,230,0,0,1,87,87.48,230,230,0,1,1,412.26,412.74,228.46,228.46,0,0,1,249.63,480.11Z" transform="translate(0.37 -0.11)"/><path d="M249.63,40.11A210,210,0,0,1,398.12,398.6a210,210,0,0,1-297-297,208.62,208.62,0,0,1,148.5-61.51m0-40C111.56.11-.37,112-.37,250.11s111.93,250,250,250,250-111.93,250-250S387.7.11,249.63.11Z" transform="translate(0.37 -0.11)"/><path class="cls-2" d="M245.69,235.33c-10.84-4.16-31.64-14.22-40.45-32.73-12-25.13-1.87-69.91,12.56-100.87,6.45-13.84,16-27.69,24-38.26l12,159Z" transform="translate(0.37 -0.11)"/><path d="M234,92.58l9.58,127.3-1.82,2.9c-10-4.9-22.07-13.06-27.5-24.47-10.1-21.23-1.31-62.53,12.59-92.36A150.21,150.21,0,0,1,234,92.58M250,38s-27.18,29.38-41.22,59.5-26.86,79.28-12.53,109.4S250,247.3,250,247.3L264,225,250,38Z" transform="translate(0.37 -0.11)"/><path class="cls-2" d="M270.1,262.53l-7.31-12.88c8.66-6.52,25.86-17.3,45-17.3,1.49,0,3,.06,4.44.19,28.8,2.6,64.14,33.54,84.8,61.2,9,12,16.49,26.47,21.91,38.35Z" transform="translate(0.37 -0.11)"/><path d="M307.76,242.35c1.19,0,2.38.05,3.54.15C335.9,244.72,369,273,389,299.72c2.55,3.4,5,7,7.26,10.73l-119-55.63L276,252.69c8.18-5.06,19.62-10.34,31.74-10.34m0-20c-31.82,0-57.8,25-57.8,25l13,22.94L437.79,352S425,314.55,405,287.75s-57.71-62.08-91.91-65.16c-1.8-.17-3.58-.24-5.34-.24Z" transform="translate(0.37 -0.11)"/><path class="cls-2" d="M118.32,347.47a275.51,275.51,0,0,1-28.61-1.62l136-89.07,15.95.35c1.63,11.15,2.8,33.06-9.18,49.38-16.69,22.71-62.16,36.76-97.35,40.2-5.16.5-10.83.76-16.85.76Z" transform="translate(0.37 -0.11)"/><path d="M228.64,266.85l3.94.08c.48,10.08-.67,23.52-8.12,33.66-14.21,19.34-56.16,32.83-90.26,36.17-4.14.4-8.63.63-13.4.69l107.84-70.6m-5.77-20.13L62.13,352a324.4,324.4,0,0,0,56.19,5.51c6,0,12-.24,17.82-.81,34.05-3.33,84.57-17.19,104.44-44.23S250,247.3,250,247.3l-27.09-.58Z" transform="translate(0.37 -0.11)"/><ellipse class="cls-3" cx="250.34" cy="247.19" rx="27.1" ry="26.15"/><path class="cls-2" d="M72.85,319.78A209.71,209.71,0,0,1,60.9,277.84c-6.63-38.22-1.53-72.29,15.16-101.25A212.5,212.5,0,0,1,157.27,97c5.23-2.89,10.23-5.38,14.89-7.5-2.89,3.29-5.9,6.91-9,10.86a247.31,247.31,0,0,0-47.55,104.35c-7.55,38.88,3.57,68.11,9.8,80.6Z" transform="translate(0.37 -0.11)"/><path d="M144.56,113.63a254,254,0,0,0-36.3,89.67c-6.89,35.53,1.08,63.66,7.69,79.27l-39.38,25.8a202.83,202.83,0,0,1-8.35-32.25,165.23,165.23,0,0,1-1.65-46.29,126.89,126.89,0,0,1,16-49.5,202.31,202.31,0,0,1,37.92-47.58,205,205,0,0,1,24.08-19.12M202.15,71S118.34,88.2,69.56,172.84c-42.58,73.9,0,158.06,0,158.06l65.82-43.13S113.51,255,123,206.16C140.37,116.6,202.15,71,202.15,71Z" transform="translate(0.37 -0.11)"/><path class="cls-2" d="M146.08,272a106.21,106.21,0,0,1,2.33-85.16A115.63,115.63,0,0,1,163,163.15a183.33,183.33,0,0,0-3.49,37.8c0,27.64,8.5,43.86,15.08,52.28Z" transform="translate(0.37 -0.11)"/><path d="M152,197.6c0,1.1,0,2.22,0,3.35,0,23.76,5.87,39.86,12.06,50.23L150,260.45c-.86-2.89-1.69-6.15-2.38-9.72A96.65,96.65,0,0,1,152,197.6m30.07-60.43s-23.41,10-40.46,46.48C116.41,237.65,143,283,143,283l43.29-28.5S167,241.61,167,201c0-50.15,15.09-63.78,15.09-63.78Z" transform="translate(0.37 -0.11)"/><path class="cls-2" d="M94.4,305.41C90.37,293.3,84,271.83,84,257.52a199.6,199.6,0,0,1,.94-20c.42,5.66,1.12,11.76,2.17,18.26,2.73,16.93,10.06,35.67,14,44.92Z" transform="translate(0.37 -0.11)"/><path d="M96.18,188.84S76.5,200,76.48,257.52c0,22.43,14.11,59.7,14.11,59.7l19.84-13.88S98.09,277,94.49,254.62c-6.74-41.84,1.69-65.78,1.69-65.78Z" transform="translate(0.37 -0.11)"/><path class="cls-2" d="M269.58,427.83a222,222,0,0,1-109.49-28.68c-4.58-2.6-8.78-5.2-12.59-7.73a264.52,264.52,0,0,0,45.44,3.9,267.09,267.09,0,0,0,86-14.22c38.9-13.22,59.52-37.4,67.42-48.69l57.1,26.67a218.34,218.34,0,0,1-31.39,30.62c-21.38,17-55.88,37.43-98.85,38.1C272,427.82,270.79,427.83,269.58,427.83Z" transform="translate(0.37 -0.11)"/><path d="M348.69,341.78l42.55,19.87a213.38,213.38,0,0,1-24.19,22.46,179.33,179.33,0,0,1-41,24.69,140.17,140.17,0,0,1-52.95,11.5l-3.53,0a213.1,213.1,0,0,1-85.68-17.66q4.42.15,9,.15a274.4,274.4,0,0,0,88.42-14.62C317,376.1,338.21,355,348.69,341.78m-5.12-18.95S325.09,357.5,276.52,374a259.35,259.35,0,0,1-83.59,13.82c-46.39,0-77.28-12.41-77.28-12.41s55.91,59.92,153.93,59.92l3.76,0c87.61-1.36,141.84-79,141.84-79l-71.61-33.45Z" transform="translate(0.37 -0.11)"/><path class="cls-2" d="M232.93,362.88a115.88,115.88,0,0,1-14.1-.84,201,201,0,0,0,34.67-15.66c25-13.92,35.22-29.31,39.4-39l31,14.42a115.9,115.9,0,0,1-77.65,40.44C241.75,362.66,237.26,362.88,232.93,362.88Z" transform="translate(0.37 -0.11)"/><path d="M296.33,317.22l15.17,7c-2,2-4.32,4.08-6.91,6.22a106.26,106.26,0,0,1-47.75,22.62l.31-.17c21.59-12,33.08-25.25,39.18-35.71m-8.06-20.29s-1.94,22.57-38.42,42.9c-30.78,17.15-49.76,19.86-58.68,19.86a24.17,24.17,0,0,1-6.11-.58s15.95,11.27,47.87,11.27c4.39,0,9.09-.21,14.08-.7,61.07-5.93,88.47-50.82,88.47-50.82l-47.21-21.93Z" transform="translate(0.37 -0.11)"/><path class="cls-2" d="M325.77,389c4.2-2.82,8.58-6,13.09-9.47,14-10.88,27.29-26.63,33.52-34.43l7.38,3.18c-8.94,9.49-24.81,25.28-37.54,32.37C336.28,383.94,330.81,386.69,325.77,389Z" transform="translate(0.37 -0.11)"/><path d="M370,335.9s-17.51,23.5-35.76,37.68c-34.18,26.56-59.87,31.48-59.87,31.48s3.68,2,12,2c11,0,30.09-3.52,59.49-19.9C366,376,392.39,345.54,392.39,345.54L370,335.9Z" transform="translate(0.37 -0.11)"/><path class="cls-2" d="M430.64,261.66c-10.25-28.05-31.7-69.45-75.49-105.68-31.18-25.8-63.45-31-77.25-32l-4.59-60.77a229.85,229.85,0,0,1,43.74,11c26,9.36,61.52,28,83.56,63.46a202.48,202.48,0,0,1,30.77,107.42C431.36,251.09,431.08,256.62,430.64,261.66Z" transform="translate(0.37 -0.11)"/><path d="M281.51,72.25c28.07,5.44,83.21,21.87,112.73,69.43A197,197,0,0,1,417.92,197a193.13,193.13,0,0,1,5.15,29.95,260.52,260.52,0,0,0-63.14-76.74,148.11,148.11,0,0,0-75-33l-3.4-44.95M265.14,54.74l5.79,76.57s.45,0,1.29,0c7.17,0,43.17,1.52,78.15,30.47,71.68,59.31,81.71,133.74,81.71,133.74s26.48-78.65-25.1-161.73c-45-72.54-141.84-79-141.84-79Z" transform="translate(0.37 -0.11)"/><path class="cls-2" d="M369,216.51c-7.67-6.6-18.1-14-32.26-21.92-20.63-11.5-36.9-13.91-46.91-13.91a58.8,58.8,0,0,0-7.65.48l-2.55-32.79c15.71,2.31,50.62,11.14,75.65,44.7A114.88,114.88,0,0,1,369,216.51Z" transform="translate(0.37 -0.11)"/><path d="M287.82,157.55a111.47,111.47,0,0,1,11.26,3.3,104.79,104.79,0,0,1,43.16,28.25L340.35,188c-17.69-9.85-34.7-14.85-50.56-14.85H289l-1.22-15.63m-16.4-17.49,3.92,50.42s5.05-2.3,14.45-2.3c9.87,0,24.56,2.54,43.26,13,45,25.07,49.69,44.5,49.69,44.5s2.77-24.54-21.48-57.06c-35.86-48.07-89.84-48.52-89.84-48.52Z" transform="translate(0.37 -0.11)"/><path class="cls-2" d="M339.17,113.06c-4.73-2.16-9.86-4.3-15.41-6.37-16.69-6.24-37.4-9.47-47.51-10.77l-.8-7.48c12.91,2.69,35.51,8.11,48.43,15.32C329.64,107,334.71,110.08,339.17,113.06Z" transform="translate(0.37 -0.11)"/><path d="M266.9,79.15l2.54,23.52s29.84,2.88,51.7,11C362.05,129,379.32,148,379.32,148s-.17-22-51.78-50.8C307.41,86,266.9,79.15,266.9,79.15Z" transform="translate(0.37 -0.11)"/></svg>